<?xml version="1.0" encoding="UTF-8"?>
<svg id="Layer_2" data-name="Layer 2" xmlns="http://www.w3.org/2000/svg" viewBox="0 0 256.52 55.6">
  <defs>
    <style>
      .cls-1 {
        letter-spacing: .02em;
      }

      .cls-1, .cls-2, .cls-3, .cls-4 {
        font-family: FiraCodeRoman-SemiBold, 'Fira Code';
        font-variation-settings: 'wght' 600;
        font-weight: 600;
      }

      .cls-2 {
        letter-spacing: .04em;
      }

      .cls-3 {
        letter-spacing: .01em;
      }

      .cls-5 {
        letter-spacing: -.03em;
      }

      .cls-5, .cls-6, .cls-7, .cls-8, .cls-9 {
        font-family: FiraCodeRoman-Regular, 'Fira Code';
        font-variation-settings: 'wght' 400;
      }

      .cls-6 {
        letter-spacing: 0em;
      }

      .cls-7 {
        letter-spacing: .05em;
      }

      .cls-10 {
        fill: #c65629;
      }

      .cls-8 {
        letter-spacing: -.01em;
      }

      .cls-9 {
        letter-spacing: -.09em;
      }

      .cls-11 {
        fill: #f0a259;
      }

      .cls-4 {
        letter-spacing: -.08em;
      }

      .cls-12 {
        fill: #f6f7f9;
        stroke: #3f6c3c;
        stroke-miterlimit: 10;
        stroke-width: 2px;
      }

      .cls-13 {
        fill: #0f1b2a;
        font-size: 36px;
      }
    </style>
  </defs>
  <g id="Layer_1-2" data-name="Layer 1">
    <g>
      <text class="cls-13" transform="translate(61.72 36.81)"><tspan class="cls-1" x="0" y="0">C</tspan><tspan class="cls-2" x="22.75" y="0">O</tspan><tspan class="cls-3" x="46.35" y="0">D</tspan><tspan class="cls-4" x="68.98" y="0">E</tspan><tspan class="cls-9" x="88.38" y="0">:</tspan><tspan class="cls-5" x="107.34" y="0">F</tspan><tspan class="cls-6" x="128.55" y="0">A</tspan><tspan class="cls-8" x="151.01" y="0">L</tspan><tspan class="cls-7" x="172.65" y="0">L</tspan></text>
      <g>
        <circle class="cls-12" cx="23.68" cy="23.68" r="22.68"/>
        <g>
          <path class="cls-10" d="M23.95,29.79s-2.59,5.22-.19,12.31c0,0,2.35-.04,2.94-1.23,0,0-2.39-2.84-2.75-11.08Z"/>
          <path class="cls-11" d="M23.68,5.25c7.43,6.82,5.65,13.59,5.65,13.59,5.52-2.33,10.02-.41,10.02-.41,0,5.83-5.01,9.62-5.01,9.62,2.83,3.12,2.44,7.45,2.44,7.45-10.92,1.49-13.1-2.98-13.1-2.98,0,0-2.18,4.47-13.1,2.98,0,0-.39-4.34,2.44-7.45,0,0-5.01-3.79-5.01-9.62,0,0,4.5-1.93,10.02.41,0,0-1.78-6.76,5.65-13.59Z"/>
          <g>
            <path class="cls-10" d="M23.68,31.25c-.13,0-.24-.11-.24-.24V8.62c0-.13.11-.24.24-.24s.24.11.24.24v22.38c0,.13-.11.24-.24.24Z"/>
            <path class="cls-10" d="M23.68,15.52c-.08,0-.16-.04-.2-.12l-2.71-4.46c-.07-.11-.03-.26.08-.33.11-.07.26-.03.33.08l2.71,4.46c.07.11.03.26-.08.33-.04.02-.08.03-.12.03Z"/>
            <path class="cls-10" d="M23.68,17.11c-.05,0-.11-.02-.15-.05-.1-.08-.12-.23-.04-.34l3.02-3.78c.08-.1.23-.12.34-.04.1.08.12.23.04.34l-3.02,3.78c-.05.06-.12.09-.19.09Z"/>
            <path class="cls-10" d="M23.68,21.27c-.06,0-.12-.02-.17-.07l-4.37-4.16c-.1-.09-.1-.24,0-.34.09-.09.24-.1.34,0l4.37,4.16c.1.09.1.24,0,.34-.05.05-.11.07-.17.07Z"/>
            <path class="cls-10" d="M23.68,22.33c-.06,0-.12-.02-.17-.07-.09-.09-.09-.25,0-.34l3.87-3.86c.09-.09.25-.09.34,0,.09.09.09.25,0,.34l-3.87,3.86s-.11.07-.17.07Z"/>
            <path class="cls-10" d="M23.68,27.1s-.08,0-.11-.03l-13.45-7.04c-.12-.06-.16-.21-.1-.32.06-.12.21-.16.32-.1l13.45,7.04c.12.06.16.21.1.32-.04.08-.13.13-.21.13Z"/>
            <path class="cls-10" d="M23.68,25.73c-.09,0-.18-.06-.22-.15-.05-.12,0-.26.13-.31l13.79-5.68c.12-.05.26,0,.31.13.05.12,0,.26-.13.31l-13.79,5.68s-.06.02-.09.02Z"/>
            <path class="cls-10" d="M21.08,25.73c-.09,0-.18-.05-.22-.14l-1.77-4.09c-.05-.12,0-.26.12-.32.12-.05.26,0,.32.12l1.77,4.09c.05.12,0,.26-.12.32-.03.01-.06.02-.1.02Z"/>
            <path class="cls-10" d="M14.16,26.19c-.09,0-.17-.05-.21-.13-.06-.12-.01-.26.1-.32l3.93-2.02c.12-.06.26-.01.32.1.06.12.01.26-.1.32l-3.93,2.02s-.07.03-.11.03Z"/>
            <path class="cls-10" d="M14.57,22.33c-.09,0-.18-.05-.22-.15l-1.17-2.72c-.05-.12,0-.26.13-.31.12-.05.26,0,.31.13l1.17,2.72c.05.12,0,.26-.13.31-.03.01-.06.02-.09.02Z"/>
            <path class="cls-10" d="M12.12,34.28c-.09,0-.18-.05-.22-.15-.05-.12,0-.26.13-.31l11.56-4.92c.12-.05.26,0,.31.13s0,.26-.13.31l-11.56,4.92s-.06.02-.09.02Z"/>
            <path class="cls-10" d="M20.19,30.85s-.08,0-.11-.03l-4.07-2.16c-.12-.06-.16-.21-.1-.32.06-.12.21-.16.32-.1l4.07,2.16c.12.06.16.21.1.32-.04.08-.13.13-.21.13Z"/>
            <path class="cls-10" d="M15.45,34.28s-.1-.01-.14-.05c-.11-.08-.13-.23-.05-.33l1.5-2.06c.08-.11.23-.13.33-.05.11.08.13.23.05.33l-1.5,2.06c-.05.06-.12.1-.19.1Z"/>
            <path class="cls-10" d="M35.04,33.47s-.06,0-.09-.02l-11.36-4.78c-.12-.05-.18-.19-.13-.31.05-.12.19-.18.31-.13l11.36,4.78c.12.05.18.19.13.31-.04.09-.13.15-.22.15Z"/>
            <path class="cls-10" d="M25.61,24.94s-.07,0-.11-.03c-.12-.06-.17-.2-.11-.32l1.63-3.29c.06-.12.2-.17.32-.11.12.06.17.2.11.32l-1.63,3.29c-.04.08-.13.13-.21.13Z"/>
            <path class="cls-10" d="M33.38,24.94s-.04,0-.06,0l-4.74-1.24c-.13-.03-.2-.16-.17-.29.03-.13.16-.21.29-.17l4.74,1.24c.13.03.2.16.17.29-.03.11-.13.18-.23.18Z"/>
            <path class="cls-10" d="M32.67,22.03s-.08-.01-.12-.03c-.11-.07-.15-.21-.09-.33l1.62-2.84c.07-.12.21-.15.33-.09.11.07.15.21.09.33l-1.62,2.84c-.04.08-.13.12-.21.12Z"/>
            <path class="cls-10" d="M25.61,29.5c-.09,0-.17-.05-.22-.13-.06-.12,0-.26.11-.32l4.96-2.4c.12-.06.26,0,.32.11.06.12,0,.26-.11.32l-4.96,2.4s-.07.02-.1.02Z"/>
            <path class="cls-10" d="M31.01,34.28c-.07,0-.14-.03-.19-.09l-2.91-3.74c-.08-.1-.06-.25.04-.34.1-.08.25-.06.34.04l2.91,3.74c.08.1.06.25-.04.34-.04.03-.1.05-.15.05Z"/>
            <path class="cls-10" d="M32.09,32.23c-.09,0-.18-.05-.22-.14-.05-.12,0-.26.12-.32l2.19-.98c.12-.06.26,0,.32.12.05.12,0,.26-.12.32l-2.19.98s-.07.02-.1.02Z"/>
          </g>
        </g>
      </g>
    </g>
  </g>
</svg>