<?xml version="1.0" encoding="UTF-8"?>
<svg id="Layer_2" data-name="Layer 2" xmlns="http://www.w3.org/2000/svg" viewBox="0 0 331.37 55.6">
  <defs>
    <style>
      .cls-1 {
        fill: #0f1b2a;
      }

      .cls-2 {
        fill: #1f8241;
      }

      .cls-3 {
        fill: none;
        stroke: #8e1840;
      }

      .cls-3, .cls-4 {
        stroke-miterlimit: 10;
        stroke-width: 2px;
      }

      .cls-4 {
        fill: #f6f7f9;
        stroke: #19263b;
      }
    </style>
  </defs>
  <g id="Layer_1-2" data-name="Layer 1">
    <g>
      <g>
        <path class="cls-1" d="M74.94,10.72c1.77,0,3.27.23,4.5.69,1.23.46,2.37,1.12,3.42,1.98l-2.57,3.05c-.73-.62-1.52-1.08-2.39-1.4-.87-.32-1.79-.48-2.78-.48-1.18,0-2.27.31-3.26.94-.99.63-1.78,1.63-2.38,3.02-.6,1.38-.9,3.21-.9,5.47s.29,4.03.86,5.41c.57,1.38,1.35,2.38,2.34,3.02.99.63,2.11.95,3.37.95,1.33,0,2.43-.23,3.3-.7.87-.47,1.66-.98,2.36-1.53l2.38,3.01c-.9.89-2.02,1.64-3.37,2.27s-2.98.94-4.9.94c-2.23,0-4.22-.51-5.96-1.53s-3.12-2.52-4.12-4.5c-1-1.98-1.5-4.42-1.5-7.33s.51-5.27,1.54-7.25c1.03-1.98,2.42-3.47,4.17-4.5s3.71-1.53,5.86-1.53Z"/>
        <path class="cls-1" d="M105.48,24.03c0,2.66-.37,4.99-1.12,6.99-.74,2-1.85,3.56-3.33,4.67s-3.3,1.67-5.48,1.67-3.99-.54-5.47-1.63c-1.48-1.09-2.6-2.63-3.34-4.62-.75-1.99-1.12-4.34-1.12-7.06s.37-4.99,1.12-6.99c.74-2,1.86-3.56,3.34-4.67,1.48-1.11,3.31-1.67,5.47-1.67s4.01.54,5.48,1.62,2.59,2.62,3.33,4.62c.75,1.99,1.12,4.35,1.12,7.07ZM100.27,24.03c0-3.22-.37-5.62-1.1-7.17-.73-1.56-1.94-2.34-3.63-2.34s-2.9.78-3.63,2.34c-.73,1.56-1.1,3.96-1.1,7.18s.38,5.63,1.13,7.17c.75,1.54,1.95,2.32,3.6,2.32s2.93-.78,3.65-2.34c.72-1.56,1.08-3.95,1.08-7.16Z"/>
        <path class="cls-1" d="M129.01,23.92c0,2.09-.22,3.88-.67,5.37s-1.07,2.72-1.86,3.7c-.79.98-1.7,1.74-2.72,2.3-1.03.55-2.12.94-3.29,1.17-1.16.23-2.34.34-3.54.34h-6.54V11.27h6.09c1.59,0,3.13.17,4.62.51,1.49.34,2.83.96,4.01,1.85,1.19.9,2.13,2.18,2.83,3.83.7,1.66,1.05,3.81,1.05,6.45ZM123.73,23.92c0-1.9-.17-3.43-.53-4.6-.35-1.17-.83-2.06-1.43-2.69-.6-.62-1.29-1.04-2.05-1.26-.76-.22-1.56-.33-2.38-.33h-1.88v18.02h1.9c.86,0,1.68-.14,2.45-.41.77-.27,1.45-.74,2.04-1.41s1.05-1.6,1.38-2.79c.33-1.19.5-2.7.5-4.53Z"/>
        <path class="cls-1" d="M139.62,15v7h9.05v3.67h-9.05v7.42h10.98v3.71h-16.04V11.27h15.91l-.52,3.73h-10.34Z"/>
        <path class="cls-1" d="M158.17,17.96c0-.57.13-1.07.39-1.51.26-.44.62-.8,1.07-1.06.46-.26.96-.4,1.51-.4.86,0,1.58.29,2.15.87s.86,1.28.86,2.1-.29,1.52-.86,2.11c-.57.6-1.29.9-2.15.9s-1.54-.3-2.11-.9c-.57-.6-.86-1.3-.86-2.11ZM158.17,31.27c0-.8.29-1.5.86-2.09s1.28-.89,2.11-.89,1.58.3,2.15.89.86,1.29.86,2.09-.29,1.55-.86,2.13c-.57.58-1.29.88-2.15.88s-1.54-.29-2.11-.88c-.57-.58-.86-1.29-.86-2.13Z"/>
        <path class="cls-1" d="M189.94,29.77c0,1.45-.36,2.74-1.09,3.87-.73,1.13-1.78,2.01-3.16,2.64-1.38.63-3.06.95-5.04.95-1.86,0-3.54-.28-5.05-.85s-2.8-1.37-3.87-2.4l1.9-2.14c.89.82,1.9,1.48,3.05,1.97,1.14.49,2.49.73,4.02.73,1.03,0,2-.17,2.9-.51s1.62-.86,2.18-1.55.83-1.58.83-2.65c0-.82-.16-1.53-.48-2.1s-.89-1.09-1.7-1.54-1.94-.89-3.4-1.32c-1.67-.49-3.12-1.05-4.35-1.67-1.23-.62-2.17-1.39-2.84-2.3-.67-.91-1.01-2.04-1.01-3.38,0-1.27.35-2.39,1.05-3.38.7-.98,1.67-1.76,2.91-2.32,1.24-.56,2.66-.84,4.27-.84,1.76,0,3.29.25,4.59.75s2.48,1.22,3.54,2.15l-1.88,2.09c-.91-.81-1.89-1.4-2.94-1.76-1.05-.36-2.11-.54-3.19-.54-.92,0-1.77.14-2.54.42-.77.28-1.38.69-1.85,1.24-.46.55-.69,1.25-.69,2.1,0,.73.2,1.35.59,1.88.39.53,1.06,1.01,1.99,1.45.93.44,2.21.9,3.82,1.38,1.32.38,2.54.86,3.67,1.43,1.13.57,2.03,1.35,2.72,2.33s1.03,2.28,1.03,3.9Z"/>
        <path class="cls-1" d="M199.97,14.01v8.57h9.42v2.64h-9.42v9.03h11.56v2.57h-14.77V11.38h14.44l-.37,2.62h-10.86Z"/>
        <path class="cls-1" d="M231.73,30.33h-10.06l-2.03,6.48h-3.16l8.27-25.42h4.1l8.27,25.42h-3.36l-2.03-6.48ZM222.5,27.67h8.4l-4.17-13.59-4.23,13.59Z"/>
        <path class="cls-1" d="M259.39,29.77c0,1.45-.36,2.74-1.09,3.87-.73,1.13-1.78,2.01-3.16,2.64-1.38.63-3.06.95-5.04.95-1.86,0-3.54-.28-5.05-.85s-2.8-1.37-3.87-2.4l1.9-2.14c.89.82,1.9,1.48,3.05,1.97,1.14.49,2.49.73,4.02.73,1.03,0,2-.17,2.9-.51s1.62-.86,2.18-1.55.83-1.58.83-2.65c0-.82-.16-1.53-.48-2.1s-.89-1.09-1.7-1.54-1.94-.89-3.4-1.32c-1.67-.49-3.12-1.05-4.35-1.67-1.23-.62-2.17-1.39-2.84-2.3-.67-.91-1.01-2.04-1.01-3.38,0-1.27.35-2.39,1.05-3.38.7-.98,1.67-1.76,2.91-2.32,1.24-.56,2.66-.84,4.27-.84,1.76,0,3.29.25,4.59.75s2.48,1.22,3.54,2.15l-1.88,2.09c-.91-.81-1.89-1.4-2.94-1.76-1.05-.36-2.11-.54-3.19-.54-.92,0-1.77.14-2.54.42-.77.28-1.38.69-1.85,1.24-.46.55-.69,1.25-.69,2.1,0,.73.2,1.35.59,1.88.39.53,1.06,1.01,1.99,1.45.93.44,2.21.9,3.82,1.38,1.32.38,2.54.86,3.67,1.43,1.13.57,2.03,1.35,2.72,2.33s1.03,2.28,1.03,3.9Z"/>
        <path class="cls-1" d="M283.18,24.12c0,2.56-.35,4.83-1.04,6.8-.7,1.98-1.74,3.52-3.13,4.63s-3.12,1.67-5.19,1.67-3.78-.54-5.18-1.63c-1.4-1.09-2.44-2.61-3.14-4.57-.7-1.96-1.04-4.25-1.04-6.87s.35-4.85,1.04-6.83c.7-1.98,1.74-3.54,3.14-4.66,1.4-1.13,3.12-1.69,5.18-1.69s3.8.55,5.19,1.64c1.39,1.1,2.43,2.63,3.13,4.6.7,1.97,1.04,4.27,1.04,6.9ZM279.83,24.12c0-3.38-.46-5.98-1.39-7.77-.93-1.8-2.46-2.7-4.61-2.7s-3.68.9-4.61,2.71-1.39,4.41-1.39,7.79.48,5.96,1.44,7.73,2.48,2.65,4.56,2.65,3.68-.89,4.61-2.67c.93-1.78,1.39-4.36,1.39-7.74Z"/>
        <path class="cls-1" d="M300.79,36.81l-8.95-22.36c.01.28.04.75.08,1.41.04.66.09,1.44.15,2.34.06.9.1,1.86.14,2.87s.06,2.01.06,2.99v12.74h-2.97V11.38h4.34l9.1,22.45c-.01-.36-.06-1.01-.13-1.97-.07-.95-.14-2.11-.2-3.46s-.09-2.79-.09-4.3v-12.72h2.97v25.42h-4.49Z"/>
        <path class="cls-1" d="M329.02,29.77c0,1.45-.36,2.74-1.09,3.87-.73,1.13-1.78,2.01-3.16,2.64-1.38.63-3.06.95-5.04.95-1.86,0-3.54-.28-5.05-.85s-2.8-1.37-3.87-2.4l1.9-2.14c.89.82,1.9,1.48,3.05,1.97,1.14.49,2.49.73,4.02.73,1.03,0,2-.17,2.9-.51s1.62-.86,2.18-1.55.83-1.58.83-2.65c0-.82-.16-1.53-.48-2.1s-.89-1.09-1.7-1.54-1.94-.89-3.4-1.32c-1.67-.49-3.12-1.05-4.35-1.67-1.23-.62-2.17-1.39-2.84-2.3-.67-.91-1.01-2.04-1.01-3.38,0-1.27.35-2.39,1.05-3.38.7-.98,1.67-1.76,2.91-2.32,1.24-.56,2.66-.84,4.27-.84,1.76,0,3.29.25,4.59.75s2.48,1.22,3.54,2.15l-1.88,2.09c-.91-.81-1.89-1.4-2.94-1.76-1.05-.36-2.11-.54-3.19-.54-.92,0-1.77.14-2.54.42-.77.28-1.38.69-1.85,1.24-.46.55-.69,1.25-.69,2.1,0,.73.2,1.35.59,1.88.39.53,1.06,1.01,1.99,1.45.93.44,2.21.9,3.82,1.38,1.32.38,2.54.86,3.67,1.43,1.13.57,2.03,1.35,2.72,2.33s1.03,2.28,1.03,3.9Z"/>
      </g>
      <g>
        <circle class="cls-4" cx="23.68" cy="23.68" r="22.68"/>
        <circle class="cls-3" cx="23.68" cy="23.68" r="18.43"/>
        <g>
          <path class="cls-2" d="M16.49,19.13l1.06,1.68-6,3.57,6,3.54-1.12,1.7-6.93-4.32v-1.85l6.99-4.33Z"/>
          <path class="cls-2" d="M21,31.96l-1.87-.85,7.59-15.72,1.85.87-7.57,15.7Z"/>
          <path class="cls-2" d="M30.87,19.13l6.98,4.32v1.86l-6.93,4.32-1.12-1.64,6.01-3.6-6.01-3.53,1.07-1.72Z"/>
        </g>
      </g>
    </g>
  </g>
</svg>