<?xml version="1.0" encoding="UTF-8"?>
<svg id="Layer_2" data-name="Layer 2" xmlns="http://www.w3.org/2000/svg" viewBox="0 0 256.52 55.6">
  <defs>
    <style>
      .cls-1 {
        fill: #0f1b2a;
      }

      .cls-2 {
        fill: #c65629;
      }

      .cls-3 {
        fill: #f0a259;
      }

      .cls-4 {
        fill: #f6f7f9;
        stroke: #3f6c3c;
        stroke-miterlimit: 10;
        stroke-width: 2px;
      }
    </style>
  </defs>
  <g id="Layer_1-2" data-name="Layer 1">
    <g>
      <g>
        <path class="cls-1" d="M74.94,10.72c1.77,0,3.27.23,4.5.69,1.23.46,2.37,1.12,3.42,1.98l-2.57,3.05c-.73-.62-1.52-1.08-2.39-1.4-.87-.32-1.79-.48-2.78-.48-1.18,0-2.27.31-3.26.94-.99.63-1.78,1.63-2.38,3.02-.6,1.38-.9,3.21-.9,5.47s.29,4.03.86,5.41c.57,1.38,1.35,2.38,2.34,3.02.99.63,2.11.95,3.37.95,1.33,0,2.43-.23,3.3-.7.87-.47,1.66-.98,2.36-1.53l2.38,3.01c-.9.89-2.02,1.64-3.37,2.27s-2.98.94-4.9.94c-2.23,0-4.22-.51-5.96-1.53s-3.12-2.52-4.12-4.5c-1-1.98-1.5-4.42-1.5-7.33s.51-5.27,1.54-7.25c1.03-1.98,2.42-3.47,4.17-4.5s3.71-1.53,5.86-1.53Z"/>
        <path class="cls-1" d="M105.48,24.03c0,2.66-.37,4.99-1.12,6.99-.74,2-1.85,3.56-3.33,4.67s-3.3,1.67-5.48,1.67-3.99-.54-5.47-1.63c-1.48-1.09-2.6-2.63-3.34-4.62-.75-1.99-1.12-4.34-1.12-7.06s.37-4.99,1.12-6.99c.74-2,1.86-3.56,3.34-4.67,1.48-1.11,3.31-1.67,5.47-1.67s4.01.54,5.48,1.62,2.59,2.62,3.33,4.62c.75,1.99,1.12,4.35,1.12,7.07ZM100.27,24.03c0-3.22-.37-5.62-1.1-7.17-.73-1.56-1.94-2.34-3.63-2.34s-2.9.78-3.63,2.34c-.73,1.56-1.1,3.96-1.1,7.18s.38,5.63,1.13,7.17c.75,1.54,1.95,2.32,3.6,2.32s2.93-.78,3.65-2.34c.72-1.56,1.08-3.95,1.08-7.16Z"/>
        <path class="cls-1" d="M129.01,23.92c0,2.09-.22,3.88-.67,5.37s-1.07,2.72-1.86,3.7c-.79.98-1.7,1.74-2.72,2.3-1.03.55-2.12.94-3.29,1.17-1.16.23-2.34.34-3.54.34h-6.54V11.27h6.09c1.59,0,3.13.17,4.62.51,1.49.34,2.83.96,4.01,1.85,1.19.9,2.13,2.18,2.83,3.83.7,1.66,1.05,3.81,1.05,6.45ZM123.73,23.92c0-1.9-.17-3.43-.53-4.6-.35-1.17-.83-2.06-1.43-2.69-.6-.62-1.29-1.04-2.05-1.26-.76-.22-1.56-.33-2.38-.33h-1.88v18.02h1.9c.86,0,1.68-.14,2.45-.41.77-.27,1.45-.74,2.04-1.41s1.05-1.6,1.38-2.79c.33-1.19.5-2.7.5-4.53Z"/>
        <path class="cls-1" d="M139.62,15v7h9.05v3.67h-9.05v7.42h10.98v3.71h-16.04V11.27h15.91l-.52,3.73h-10.34Z"/>
        <path class="cls-1" d="M158.17,17.96c0-.57.13-1.07.39-1.51.26-.44.62-.8,1.07-1.06.46-.26.96-.4,1.51-.4.86,0,1.58.29,2.15.87s.86,1.28.86,2.1-.29,1.52-.86,2.11c-.57.6-1.29.9-2.15.9s-1.54-.3-2.11-.9c-.57-.6-.86-1.3-.86-2.11ZM158.17,31.27c0-.8.29-1.5.86-2.09s1.28-.89,2.11-.89,1.58.3,2.15.89.86,1.29.86,2.09-.29,1.55-.86,2.13c-.57.58-1.29.88-2.15.88s-1.54-.29-2.11-.88c-.57-.58-.86-1.29-.86-2.13Z"/>
        <path class="cls-1" d="M177.34,14.01v8.9h9.97v2.58h-9.97v11.32h-3.17V11.38h14.97l-.39,2.62h-11.41Z"/>
        <path class="cls-1" d="M206.27,30.33h-10.06l-2.03,6.48h-3.16l8.27-25.42h4.1l8.27,25.42h-3.36l-2.03-6.48ZM197.04,27.67h8.4l-4.17-13.59-4.23,13.59Z"/>
        <path class="cls-1" d="M217.73,36.81V11.38h3.21v22.56h11.59l-.37,2.86h-14.44Z"/>
        <path class="cls-1" d="M239.37,36.81V11.38h3.21v22.56h11.59l-.37,2.86h-14.44Z"/>
      </g>
      <g>
        <circle class="cls-4" cx="23.68" cy="23.68" r="22.68"/>
        <g>
          <path class="cls-2" d="M23.95,29.79s-2.59,5.22-.19,12.31c0,0,2.35-.04,2.94-1.23,0,0-2.39-2.84-2.75-11.08Z"/>
          <path class="cls-3" d="M23.68,5.25c7.43,6.82,5.65,13.59,5.65,13.59,5.52-2.33,10.02-.41,10.02-.41,0,5.83-5.01,9.62-5.01,9.62,2.83,3.12,2.44,7.45,2.44,7.45-10.92,1.49-13.1-2.98-13.1-2.98,0,0-2.18,4.47-13.1,2.98,0,0-.39-4.34,2.44-7.45,0,0-5.01-3.79-5.01-9.62,0,0,4.5-1.93,10.02.41,0,0-1.78-6.76,5.65-13.59Z"/>
          <g>
            <path class="cls-2" d="M23.68,31.25c-.13,0-.24-.11-.24-.24V8.62c0-.13.11-.24.24-.24s.24.11.24.24v22.38c0,.13-.11.24-.24.24Z"/>
            <path class="cls-2" d="M23.68,15.52c-.08,0-.16-.04-.2-.12l-2.71-4.46c-.07-.11-.03-.26.08-.33.11-.07.26-.03.33.08l2.71,4.46c.07.11.03.26-.08.33-.04.02-.08.03-.12.03Z"/>
            <path class="cls-2" d="M23.68,17.11c-.05,0-.11-.02-.15-.05-.1-.08-.12-.23-.04-.34l3.02-3.78c.08-.1.23-.12.34-.04.1.08.12.23.04.34l-3.02,3.78c-.05.06-.12.09-.19.09Z"/>
            <path class="cls-2" d="M23.68,21.27c-.06,0-.12-.02-.17-.07l-4.37-4.16c-.1-.09-.1-.24,0-.34.09-.09.24-.1.34,0l4.37,4.16c.1.09.1.24,0,.34-.05.05-.11.07-.17.07Z"/>
            <path class="cls-2" d="M23.68,22.33c-.06,0-.12-.02-.17-.07-.09-.09-.09-.25,0-.34l3.87-3.86c.09-.09.25-.09.34,0,.09.09.09.25,0,.34l-3.87,3.86s-.11.07-.17.07Z"/>
            <path class="cls-2" d="M23.68,27.1s-.08,0-.11-.03l-13.45-7.04c-.12-.06-.16-.21-.1-.32.06-.12.21-.16.32-.1l13.45,7.04c.12.06.16.21.1.32-.04.08-.13.13-.21.13Z"/>
            <path class="cls-2" d="M23.68,25.73c-.09,0-.18-.06-.22-.15-.05-.12,0-.26.13-.31l13.79-5.68c.12-.05.26,0,.31.13.05.12,0,.26-.13.31l-13.79,5.68s-.06.02-.09.02Z"/>
            <path class="cls-2" d="M21.08,25.73c-.09,0-.18-.05-.22-.14l-1.77-4.09c-.05-.12,0-.26.12-.32.12-.05.26,0,.32.12l1.77,4.09c.05.12,0,.26-.12.32-.03.01-.06.02-.1.02Z"/>
            <path class="cls-2" d="M14.16,26.19c-.09,0-.17-.05-.21-.13-.06-.12-.01-.26.1-.32l3.93-2.02c.12-.06.26-.01.32.1.06.12.01.26-.1.32l-3.93,2.02s-.07.03-.11.03Z"/>
            <path class="cls-2" d="M14.57,22.33c-.09,0-.18-.05-.22-.15l-1.17-2.72c-.05-.12,0-.26.13-.31.12-.05.26,0,.31.13l1.17,2.72c.05.12,0,.26-.13.31-.03.01-.06.02-.09.02Z"/>
            <path class="cls-2" d="M12.12,34.28c-.09,0-.18-.05-.22-.15-.05-.12,0-.26.13-.31l11.56-4.92c.12-.05.26,0,.31.13s0,.26-.13.31l-11.56,4.92s-.06.02-.09.02Z"/>
            <path class="cls-2" d="M20.19,30.85s-.08,0-.11-.03l-4.07-2.16c-.12-.06-.16-.21-.1-.32.06-.12.21-.16.32-.1l4.07,2.16c.12.06.16.21.1.32-.04.08-.13.13-.21.13Z"/>
            <path class="cls-2" d="M15.45,34.28s-.1-.01-.14-.05c-.11-.08-.13-.23-.05-.33l1.5-2.06c.08-.11.23-.13.33-.05.11.08.13.23.05.33l-1.5,2.06c-.05.06-.12.1-.19.1Z"/>
            <path class="cls-2" d="M35.04,33.47s-.06,0-.09-.02l-11.36-4.78c-.12-.05-.18-.19-.13-.31.05-.12.19-.18.31-.13l11.36,4.78c.12.05.18.19.13.31-.04.09-.13.15-.22.15Z"/>
            <path class="cls-2" d="M25.61,24.94s-.07,0-.11-.03c-.12-.06-.17-.2-.11-.32l1.63-3.29c.06-.12.2-.17.32-.11.12.06.17.2.11.32l-1.63,3.29c-.04.08-.13.13-.21.13Z"/>
            <path class="cls-2" d="M33.38,24.94s-.04,0-.06,0l-4.74-1.24c-.13-.03-.2-.16-.17-.29.03-.13.16-.21.29-.17l4.74,1.24c.13.03.2.16.17.29-.03.11-.13.18-.23.18Z"/>
            <path class="cls-2" d="M32.67,22.03s-.08-.01-.12-.03c-.11-.07-.15-.21-.09-.33l1.62-2.84c.07-.12.21-.15.33-.09.11.07.15.21.09.33l-1.62,2.84c-.04.08-.13.12-.21.12Z"/>
            <path class="cls-2" d="M25.61,29.5c-.09,0-.17-.05-.22-.13-.06-.12,0-.26.11-.32l4.96-2.4c.12-.06.26,0,.32.11.06.12,0,.26-.11.32l-4.96,2.4s-.07.02-.1.02Z"/>
            <path class="cls-2" d="M31.01,34.28c-.07,0-.14-.03-.19-.09l-2.91-3.74c-.08-.1-.06-.25.04-.34.1-.08.25-.06.34.04l2.91,3.74c.08.1.06.25-.04.34-.04.03-.1.05-.15.05Z"/>
            <path class="cls-2" d="M32.09,32.23c-.09,0-.18-.05-.22-.14-.05-.12,0-.26.12-.32l2.19-.98c.12-.06.26,0,.32.12.05.12,0,.26-.12.32l-2.19.98s-.07.02-.1.02Z"/>
          </g>
        </g>
      </g>
    </g>
  </g>
</svg>