<?xml version="1.0" encoding="UTF-8"?>
<svg id="Layer_2" data-name="Layer 2" xmlns="http://www.w3.org/2000/svg" viewBox="0 0 305.38 55.6">
  <defs>
    <style>
      .cls-1 {
        letter-spacing: .01em;
      }

      .cls-1, .cls-2, .cls-3, .cls-4, .cls-5, .cls-6, .cls-7 {
        font-family: FiraCodeRoman-Regular, 'Fira Code';
        font-variation-settings: 'wght' 400;
      }

      .cls-2 {
        letter-spacing: .02em;
      }

      .cls-8 {
        letter-spacing: .02em;
      }

      .cls-8, .cls-9, .cls-10, .cls-11 {
        font-family: FiraCodeRoman-SemiBold, 'Fira Code';
        font-variation-settings: 'wght' 600;
        font-weight: 600;
      }

      .cls-9 {
        letter-spacing: .04em;
      }

      .cls-3 {
        letter-spacing: 0em;
      }

      .cls-10 {
        letter-spacing: .01em;
      }

      .cls-12 {
        fill: #ffcf56;
      }

      .cls-4 {
        letter-spacing: .05em;
      }

      .cls-5 {
        letter-spacing: .04em;
      }

      .cls-13 {
        fill: #e95e9d;
      }

      .cls-6 {
        letter-spacing: -.06em;
      }

      .cls-14 {
        fill: #c1b2d7;
      }

      .cls-7 {
        letter-spacing: 0em;
      }

      .cls-11 {
        letter-spacing: -.08em;
      }

      .cls-15 {
        fill: #f6f7f9;
        stroke: #e95e9d;
        stroke-miterlimit: 10;
        stroke-width: 2px;
      }

      .cls-16 {
        fill: #0f1b2a;
        font-size: 36px;
      }
    </style>
  </defs>
  <g id="Layer_1-2" data-name="Layer 1">
    <g>
      <text class="cls-16" transform="translate(61.72 36.81)"><tspan class="cls-8" x="0" y="0">C</tspan><tspan class="cls-9" x="22.75" y="0">O</tspan><tspan class="cls-10" x="46.35" y="0">D</tspan><tspan class="cls-11" x="68.98" y="0">E</tspan><tspan class="cls-6" x="88.38" y="0">:</tspan><tspan class="cls-7" x="108.41" y="0">S</tspan><tspan class="cls-1" x="130.59" y="0">P</tspan><tspan class="cls-2" x="153.26" y="0">R</tspan><tspan class="cls-3" x="176.23" y="0">I</tspan><tspan class="cls-5" x="198.09" y="0">N</tspan><tspan class="cls-4" x="221.51" y="0">G</tspan></text>
      <g>
        <circle class="cls-15" cx="23.68" cy="23.68" r="22.68"/>
        <g>
          <g>
            <path class="cls-14" d="M7.18,33.83c1.54,2.67,23.07,5.91,16.5-9.53-10.09-13.41-18.04,6.86-16.5,9.53Z"/>
            <path class="cls-14" d="M23.68,5.25c-3.08,0-16.66,17.02,0,19.05,16.66-2.03,3.08-19.05,0-19.05Z"/>
            <path class="cls-14" d="M40.17,33.83c1.54-2.67-6.41-22.94-16.5-9.53-6.57,15.44,14.96,12.2,16.5,9.53Z"/>
          </g>
          <g>
            <path class="cls-13" d="M8.46,15.27c-1.44,2.5,6.02,21.53,15.49,8.94,6.17-14.5-14.04-11.45-15.49-8.94Z"/>
            <path class="cls-13" d="M39.44,15.27c-1.45-2.51-21.66-5.55-15.49,8.94,9.47,12.59,16.94-6.44,15.49-8.94Z"/>
            <path class="cls-13" d="M23.95,42.1c2.89,0,15.64-15.98,0-17.89-15.64,1.91-2.89,17.89,0,17.89Z"/>
          </g>
          <path class="cls-12" d="M27.57,23.92c0,2.18-1.77,3.95-3.94,3.95s-3.94-1.77-3.94-3.95,1.76-3.94,3.94-3.94c2.18,0,3.94,1.77,3.94,3.94Z"/>
        </g>
      </g>
    </g>
  </g>
</svg>