<svg xmlns="http://www.w3.org/2000/svg" xmlns:xlink="http://www.w3.org/1999/xlink" width="800" height="880"><g transform="translate(0 0)"><path d="M0 0h800v880H0z" fill="#f2f2f2"/><path d="M60 70.75c0-2.76 2.24-5 5-5h190c2.76 0 5 2.24 5 5v137.5c0 2.76-2.24 5-5 5H65c-2.76 0-5-2.24-5-5z" fill="#fff"/><path d="M60 65.75h200v40H60z" fill="#ccc"/><path d="M60 70.75c0-2.76 2.24-5 5-5h190c2.76 0 5 2.24 5 5v137.5c0 2.76-2.24 5-5 5H65c-2.76 0-5-2.24-5-5zM60 105.75h200" stroke="#3d4752" stroke-width="2" fill="none"/><use xlink:href="#a" transform="matrix(1,0,0,1,70,65.75) translate(6 31.112000000000002)"/><use xlink:href="#b" transform="matrix(1,0,0,1,65,108.25) translate(6 26.112000000000002)"/><use xlink:href="#c" transform="matrix(1,0,0,1,65,143.25) translate(6 26.112000000000002)"/><use xlink:href="#d" transform="matrix(1,0,0,1,65,178.25) translate(6 26.112000000000002)"/><path d="M160 213.25v99.9" stroke="#8bbe3f" stroke-width="2" fill="none"/><path d="M170 224.25h-20v-2h20zM170 234.25h-20v-2h20zM170.9 312.7l-1.8.9-9.1-18.2-9.1 18.2-1.8-.9 10.9-21.8z" fill="#8bbe3f"/><path d="M170 294.15h-20v-2h20z" fill="#8bbe3f"/><path d="M60 319.25c0-2.76 2.24-5 5-5h190c2.76 0 5 2.24 5 5v67.5c0 2.76-2.24 5-5 5H65c-2.76 0-5-2.24-5-5z" fill="#fff"/><path d="M60 314.25h200v40H60z" fill="#ccc"/><path d="M60 319.25c0-2.76 2.24-5 5-5h190c2.76 0 5 2.24 5 5v67.5c0 2.76-2.24 5-5 5H65c-2.76 0-5-2.24-5-5zM60 354.25h200" stroke="#3d4752" stroke-width="2" fill="none"/><use xlink:href="#e" transform="matrix(1,0,0,1,70,314.25) translate(6 31.112000000000002)"/><use xlink:href="#f" transform="matrix(1,0,0,1,70,314.25) translate(52.02599999999999 31.112000000000002)"/><use xlink:href="#g" transform="matrix(1,0,0,1,65,356.75) translate(6 26.112000000000002)"/><use xlink:href="#h" transform="matrix(1,0,0,1,65,356.75) translate(52.745999999999995 26.112000000000002)"/><path d="M540 319.75c0-2.76 2.24-5 5-5h190c2.76 0 5 2.24 5 5v102.5c0 2.76-2.24 5-5 5H545c-2.76 0-5-2.24-5-5z" fill="#fff"/><path d="M540 314.75h200v40H540z" fill="#ccc"/><path d="M540 319.75c0-2.76 2.24-5 5-5h190c2.76 0 5 2.24 5 5v102.5c0 2.76-2.24 5-5 5H545c-2.76 0-5-2.24-5-5zM540 354.75h200" stroke="#3d4752" stroke-width="2" fill="none"/><use xlink:href="#i" transform="matrix(1,0,0,1,550,314.75) translate(6 31.112000000000002)"/><use xlink:href="#j" transform="matrix(1,0,0,1,545,357.25) translate(6 26.112000000000002)"/><use xlink:href="#k" transform="matrix(1,0,0,1,545,392.25) translate(6 26.112000000000002)"/><use xlink:href="#l" transform="matrix(1,0,0,1,545,392.25) translate(48.74999999999999 26.112000000000002)"/><path d="M60 531.5c0-2.76 2.24-5 5-5h190c2.76 0 5 2.24 5 5V634c0 2.76-2.24 5-5 5H65c-2.76 0-5-2.24-5-5z" fill="#fff"/><path d="M60 526.5h200v40H60z" fill="#ccc"/><path d="M60 531.5c0-2.76 2.24-5 5-5h190c2.76 0 5 2.24 5 5V634c0 2.76-2.24 5-5 5H65c-2.76 0-5-2.24-5-5zM60 566.5h200" stroke="#3d4752" stroke-width="2" fill="none"/><use xlink:href="#m" transform="matrix(1,0,0,1,70,526.5) translate(6 31.112000000000002)"/><use xlink:href="#j" transform="matrix(1,0,0,1,65,569) translate(6 26.112000000000002)"/><use xlink:href="#k" transform="matrix(1,0,0,1,65,604) translate(6 26.112000000000002)"/><use xlink:href="#n" transform="matrix(1,0,0,1,65,604) translate(48.74999999999999 26.112000000000002)"/><path d="M160 391.75v133.6" stroke="#8bbe3f" stroke-width="2" fill="none"/><path d="M170 402.75h-20v-2h20zM170 412.75h-20v-2h20zM170.9 524.9l-1.8.9-9.1-18.2-9.1 18.2-1.8-.9 10.9-21.78z" fill="#8bbe3f"/><path d="M170 506.36h-20v-2h20z" fill="#8bbe3f"/><path d="M260 373.67h139.95c.03 0 .05-.03.05-.06 0-.02.02-.04.05-.04H540" stroke="#8bbe3f" stroke-width="2" fill="none"/><path d="M271 383.67h-2v-20h2zM281 383.67h-2v-20h2zM540 363.56v1.1l-17.76 8.9 17.76 8.88v1.12l-.45.9-21.8-10.9 21.8-10.9z" fill="#8bbe3f"/><path d="M521 383.56h-2v-20h2z" fill="#8bbe3f"/><path d="M540 531.75c0-2.76 2.24-5 5-5h190c2.76 0 5 2.24 5 5v277.5c0 2.76-2.24 5-5 5H545c-2.76 0-5-2.24-5-5z" fill="#fff"/><path d="M540 526.75h200v40H540z" fill="#ccc"/><path d="M540 531.75c0-2.76 2.24-5 5-5h190c2.76 0 5 2.24 5 5v277.5c0 2.76-2.24 5-5 5H545c-2.76 0-5-2.24-5-5zM540 566.75h200" stroke="#3d4752" stroke-width="2" fill="none"/><use xlink:href="#o" transform="matrix(1,0,0,1,550,526.75) translate(6 31.112000000000002)"/><use xlink:href="#p" transform="matrix(1,0,0,1,545,569.25) translate(6 26.112000000000002)"/><use xlink:href="#q" transform="matrix(1,0,0,1,545,569.25) translate(51.035999999999994 26.112000000000002)"/><use xlink:href="#p" transform="matrix(1,0,0,1,545,604.25) translate(6 26.112000000000002)"/><use xlink:href="#r" transform="matrix(1,0,0,1,545,604.25) translate(51.035999999999994 26.112000000000002)"/><use xlink:href="#p" transform="matrix(1,0,0,1,545,639.25) translate(6 26.112000000000002)"/><use xlink:href="#s" transform="matrix(1,0,0,1,545,639.25) translate(51.035999999999994 26.112000000000002)"/><use xlink:href="#p" transform="matrix(1,0,0,1,545,674.25) translate(6 26.112000000000002)"/><use xlink:href="#t" transform="matrix(1,0,0,1,545,674.25) translate(51.035999999999994 26.112000000000002)"/><use xlink:href="#p" transform="matrix(1,0,0,1,545,709.25) translate(6 26.112000000000002)"/><use xlink:href="#u" transform="matrix(1,0,0,1,545,709.25) translate(51.035999999999994 26.112000000000002)"/><use xlink:href="#j" transform="matrix(1,0,0,1,545,744.25) translate(6 26.112000000000002)"/><use xlink:href="#v" transform="matrix(1,0,0,1,545,779.25) translate(6 26.112000000000002)"/><use xlink:href="#w" transform="matrix(1,0,0,1,545,779.25) translate(66.37199999999999 26.112000000000002)"/><use xlink:href="#h" transform="matrix(1,0,0,1,545,779.25) translate(110.38199999999998 26.112000000000002)"/><path d="M640 427.25v98.3" stroke="#8bbe3f" stroke-width="2" fill="none"/><path d="M650.9 427.7L640 449.5l-10.9-21.8.9-.45h1.12L640 445l8.88-17.75H650z" fill="#8bbe3f"/><path d="M650 457.25l-.5 3.16-1.43 2.76-2.16 2.16-2.74 1.42-3.16.5-3.16-.5-2.75-1.42-2.17-2.16-1.42-2.75-.5-3.15.5-3.16 1.43-2.76 2.16-2.16 2.74-1.42 3.16-.5 3.16.5 2.75 1.42 2.17 2.16 1.42 2.75z" fill="#fff"/><path d="M643.48 446.8l3.02 1.56 2.4 2.4 1.55 3 .54 3.33-1 .15 1 .16-.55 3.33-1.56 3.02-2.4 2.4-3.02 1.55-3.48.56-3.48-.56-3.02-1.56-2.4-2.4-1.55-3-.56-3.5.55-3.47 1.56-3.02 2.4-2.4 3.02-1.55 3.48-.56zm-6.32 1.92L634.7 450l-1.95 1.94-1.28 2.47-.46 2.85.47 2.84 1.28 2.46 1.94 1.94 2.46 1.28 2.84.46 2.84-.46 2.47-1.28 1.95-1.94 1.28-2.47.46-2.85-.47-2.84-1.28-2.46-1.94-1.94-2.46-1.28-2.84-.46zM650 516.54h-20v-2h20zM650 506.54h-20v-2h20z" fill="#8bbe3f"/><path d="M261 584.75h279" stroke="#8bbe3f" stroke-width="2" fill="none"/><path d="M283.24 584.75l-21.8 10.9-.9-1.8 18.22-9.1-18.2-9.1.9-1.8z" fill="#8bbe3f"/><path d="M301 584.75l-.5 3.17-1.43 2.74-2.16 2.16-2.74 1.42-3.16.5-3.16-.5-2.75-1.42-2.17-2.16-1.42-2.74-.5-3.17.5-3.16 1.43-2.75 2.16-2.17 2.74-1.42 3.16-.5 3.16.5 2.75 1.42 2.17 2.17 1.42 2.74z" fill="#fff"/><path d="M294.48 574.3l3.02 1.57 2.4 2.38 1.55 3.03.54 3.32-1 .15 1 .16-.55 3.33-1.56 3.03-2.4 2.38-3.02 1.57-3.48.57-3.48-.56-3.02-1.56-2.4-2.38-1.55-3.03-.56-3.48.55-3.47 1.56-3.03 2.4-2.38 3.02-1.57 3.48-.56zm-6.32 1.93l-2.47 1.27-1.95 1.95-1.28 2.46-.46 2.85.47 2.85 1.28 2.46 1.94 1.95 2.46 1.28 2.84.46 2.84-.46 2.47-1.27 1.95-1.94 1.28-2.46.46-2.85-.47-2.84-1.28-2.45-1.94-1.95-2.46-1.27-2.84-.46zM531 594.75h-2v-20h2zM521 594.75h-2v-20h2z" fill="#8bbe3f"/><defs><path fill="#3d4752" d="M623-208C623-88 539 0 408 0H79v-729h296c138 0 216 79 216 185 0 74-35 128-101 159 93 36 133 89 133 177zM498-531c0-74-43-116-146-116H172v232h180c103 0 146-42 146-116zm32 324c0-71-43-126-131-126H172v251h227c88 0 131-55 131-125" id="x"/><path fill="#3d4752" d="M510-258c0 172-90 273-237 273C124 15 36-86 36-262s89-277 236-277c151 0 238 100 238 281zm-87-1c0-130-56-203-150-203-93 0-150 74-150 200 0 127 57 200 150 200 92 0 150-74 150-197" id="y"/><path fill="#3d4752" d="M502 0H399L222-284l-81 80V0H58v-729h83v427l222-222h107L288-343" id="z"/><g id="a"><use transform="matrix(0.018,0,0,0.018,0,0)" xlink:href="#x"/><use transform="matrix(0.018,0,0,0.018,12.005999999999998,0)" xlink:href="#y"/><use transform="matrix(0.018,0,0,0.018,22.013999999999996,0)" xlink:href="#y"/><use transform="matrix(0.018,0,0,0.018,32.02199999999999,0)" xlink:href="#z"/></g><path fill="#3d4752" d="M193 0h-93v-729h93V0" id="A"/><path fill="#3d4752" d="M621-200C621-70 521 18 336 18 164 18 48-65 48-237h88c0 104 68 173 206 173 126 0 186-47 186-127 0-115-213-135-315-166-95-29-143-81-143-170 0-132 99-220 259-220 168 0 267 83 267 226h-88c0-95-66-148-182-148-98 0-163 55-163 129 0 56 32 85 120 108l183 49c99 27 155 93 155 183" id="B"/><path fill="#3d4752" d="M646 0H541L164-591V0H76v-729h101l381 596v-596h88V0" id="C"/><g id="b"><use transform="matrix(0.018,0,0,0.018,0,0)" xlink:href="#A"/><use transform="matrix(0.018,0,0,0.018,5.004,0)" xlink:href="#B"/><use transform="matrix(0.018,0,0,0.018,17.009999999999998,0)" xlink:href="#x"/><use transform="matrix(0.018,0,0,0.018,29.016,0)" xlink:href="#C"/></g><path fill="#3d4752" d="M593-647H354V0h-93v-647H21v-82h572v82" id="D"/><path fill="#3d4752" d="M153 0H70v-524h83V0zm11-603H60v-104h104v104" id="E"/><path fill="#3d4752" d="M254 0C173 20 85 2 85-76v-380H14v-68h71v-144h83v144h86v68h-86v343c-10 55 46 50 86 43V0" id="F"/><path fill="#3d4752" d="M151 0H68v-729h83V0" id="G"/><path fill="#3d4752" d="M513-238H127c2 120 67 176 154 176 67 0 114-28 137-97h84C481-53 398 15 278 15 131 15 40-87 40-259s94-280 240-280c156 0 245 109 233 301zm-90-68c5-85-61-156-144-156-84 0-143 63-150 156h294" id="H"/><g id="c"><use transform="matrix(0.018,0,0,0.018,0,0)" xlink:href="#D"/><use transform="matrix(0.018,0,0,0.018,10.998,0)" xlink:href="#E"/><use transform="matrix(0.018,0,0,0.018,14.993999999999998,0)" xlink:href="#F"/><use transform="matrix(0.018,0,0,0.018,19.997999999999998,0)" xlink:href="#G"/><use transform="matrix(0.018,0,0,0.018,23.994,0)" xlink:href="#H"/></g><path fill="#3d4752" d="M653 0H549l-75-219H193L116 0H17l260-729h120zM448-297L336-629 216-297h232" id="I"/><path fill="#3d4752" d="M482 0h-75v-81c-49 69-98 96-175 96C130 15 65-41 65-128v-396h83v363c0 63 42 103 108 103 87 0 143-70 143-177v-289h83V0" id="J"/><path fill="#3d4752" d="M486 0h-83v-363c0-69-49-103-108-103-86 0-142 70-142 177V0H70v-729h83v277c49-64 94-87 168-87 102 0 165 55 165 143V0" id="K"/><path fill="#3d4752" d="M321-451c-129 2-168 61-168 179V0H70v-524h76v95c59-88 90-119 175-107v85" id="L"/><g id="d"><use transform="matrix(0.018,0,0,0.018,0,0)" xlink:href="#I"/><use transform="matrix(0.018,0,0,0.018,11.825999999999999,0)" xlink:href="#J"/><use transform="matrix(0.018,0,0,0.018,21.833999999999993,0)" xlink:href="#F"/><use transform="matrix(0.018,0,0,0.018,26.747999999999998,0)" xlink:href="#K"/><use transform="matrix(0.018,0,0,0.018,36.756,0)" xlink:href="#y"/><use transform="matrix(0.018,0,0,0.018,46.763999999999996,0)" xlink:href="#L"/></g><g id="e"><use transform="matrix(0.018,0,0,0.018,0,0)" xlink:href="#x"/><use transform="matrix(0.018,0,0,0.018,12.005999999999998,0)" xlink:href="#y"/><use transform="matrix(0.018,0,0,0.018,22.013999999999996,0)" xlink:href="#y"/><use transform="matrix(0.018,0,0,0.018,32.02199999999999,0)" xlink:href="#z"/></g><path fill="#3d4752" d="M677-266C655-76 555 18 377 18 163 18 48-143 48-356s112-391 333-391c160 0 252 84 281 244h-95c-23-111-83-162-197-162-141 0-229 121-229 308 0 182 92 293 237 293 123 0 181-64 203-202h96" id="M"/><path fill="#3d4752" d="M523-257c0 167-89 272-224 272-68 0-117-24-161-78v281H55v-742h76v79c39-62 96-94 167-94 139 0 225 106 225 282zm-87-2c0-125-60-202-152-202-88 0-146 80-146 203S196-63 284-63c91 0 152-77 152-196" id="N"/><path fill="#3d4752" d="M478-524L245 110c-36 94-104 129-191 95v-75c56 13 91 7 111-45l32-83L20-524h89l134 408 145-408h90" id="O"/><g id="f"><use transform="matrix(0.018,0,0,0.018,0,0)" xlink:href="#M"/><use transform="matrix(0.018,0,0,0.018,12.995999999999999,0)" xlink:href="#y"/><use transform="matrix(0.018,0,0,0.018,23.003999999999998,0)" xlink:href="#N"/><use transform="matrix(0.018,0,0,0.018,32.742,0)" xlink:href="#O"/></g><g id="g"><use transform="matrix(0.018,0,0,0.018,0,0)" xlink:href="#M"/><use transform="matrix(0.018,0,0,0.018,12.995999999999999,0)" xlink:href="#y"/><use transform="matrix(0.018,0,0,0.018,23.003999999999998,0)" xlink:href="#N"/><use transform="matrix(0.018,0,0,0.018,32.742,0)" xlink:href="#O"/></g><path fill="#3d4752" d="M542-433H436l-31 174h105v68H393L354 20h-76l38-211H192L153 20H77l38-211H14v-68h114l31-174H51v-68h121l36-196h76l-36 196h125l35-196h77l-36 196h93v68zm-182 0H236l-32 174h125" id="P"/><use transform="matrix(0.018,0,0,0.018,0,0)" xlink:href="#P" id="h"/><path fill="#3d4752" d="M533 0H80v-729h93v647h360V0" id="Q"/><path fill="#3d4752" d="M535-2c-69 24-126 0-143-60-46 49-111 77-178 77C108 15 42-41 42-136c0-64 31-111 92-136 32-13 50-16 168-32 77-11 87-22 87-80 0-50-42-78-117-78-78 0-116 29-123 93H65c5-121 83-170 210-170 129 0 197 50 197 143v292c-2 32 28 47 63 39v63zM389-181v-78c-28 13-46 17-134 29-89 13-126 37-126 92 0 57 38 80 103 80 81 0 157-48 157-123" id="R"/><path fill="#3d4752" d="M487 0h-83v-363c0-63-42-103-108-103-85 0-143 70-143 177V0H70v-524h77v88c46-73 96-103 174-103 101 0 166 56 166 143V0" id="S"/><g id="i"><use transform="matrix(0.018,0,0,0.018,0,0)" xlink:href="#Q"/><use transform="matrix(0.018,0,0,0.018,10.008,0)" xlink:href="#y"/><use transform="matrix(0.018,0,0,0.018,20.016,0)" xlink:href="#R"/><use transform="matrix(0.018,0,0,0.018,30.023999999999997,0)" xlink:href="#S"/></g><path fill="#3d4752" d="M760 0h-83v-361c0-66-35-105-96-105-68 0-124 61-124 137V0h-83v-361c0-67-35-105-97-105-68 0-123 61-123 137V0H71v-524h76v74c45-63 91-89 161-89 68 0 110 24 141 80 49-59 91-80 161-80 98 0 150 52 150 146V0" id="T"/><g id="j"><use transform="matrix(0.018,0,0,0.018,0,0)" xlink:href="#C"/><use transform="matrix(0.018,0,0,0.018,12.905999999999999,0)" xlink:href="#R"/><use transform="matrix(0.018,0,0,0.018,22.913999999999998,0)" xlink:href="#T"/><use transform="matrix(0.018,0,0,0.018,37.907999999999994,0)" xlink:href="#H"/></g><path fill="#3d4752" d="M667-365C667-138 554 0 370 0H89v-729h281c185 0 297 138 297 364zm-93 1c0-186-76-283-220-283H182v565h172c144 0 220-98 220-282" id="U"/><g id="k"><use transform="matrix(0.018,0,0,0.018,0,0)" xlink:href="#U"/><use transform="matrix(0.018,0,0,0.018,12.995999999999999,0)" xlink:href="#R"/><use transform="matrix(0.018,0,0,0.018,23.003999999999998,0)" xlink:href="#F"/><use transform="matrix(0.018,0,0,0.018,27.738,0)" xlink:href="#H"/></g><g id="l"><use transform="matrix(0.018,0,0,0.018,0,0)" xlink:href="#U"/><use transform="matrix(0.018,0,0,0.018,12.995999999999999,0)" xlink:href="#J"/><use transform="matrix(0.018,0,0,0.018,23.003999999999998,0)" xlink:href="#H"/></g><path fill="#3d4752" d="M679 0H566c-22-45-22-117-20-184 2-90-38-130-120-130H186V0H93v-729h336c143 0 222 69 222 195 0 83-33 134-115 174 79 34 97 70 99 190 1 97 9 123 44 147V0zM554-521c0-82-39-126-143-126H186v251h225c99 0 143-39 143-125" id="V"/><path fill="#3d4752" d="M459-147c0 101-84 162-216 162C106 15 38-39 34-160h88c11 80 53 98 128 98 73 0 122-29 122-78 0-63-103-74-159-88C89-260 47-297 47-379c0-97 79-160 201-160 121 0 189 58 190 161h-88c-2-55-38-84-105-84-68 0-111 31-111 79 0 37 29 59 97 75l80 19c104 25 148 64 148 142" id="W"/><path fill="#3d4752" d="M486-524L285 0h-91L10-524h94L244-99l148-425h94" id="X"/><g id="m"><use transform="matrix(0.018,0,0,0.018,0,0)" xlink:href="#V"/><use transform="matrix(0.018,0,0,0.018,12.815999999999999,0)" xlink:href="#H"/><use transform="matrix(0.018,0,0,0.018,22.823999999999998,0)" xlink:href="#W"/><use transform="matrix(0.018,0,0,0.018,31.823999999999998,0)" xlink:href="#H"/><use transform="matrix(0.018,0,0,0.018,41.831999999999994,0)" xlink:href="#L"/><use transform="matrix(0.018,0,0,0.018,48.366,0)" xlink:href="#X"/><use transform="matrix(0.018,0,0,0.018,57.00599999999999,0)" xlink:href="#R"/><use transform="matrix(0.018,0,0,0.018,67.014,0)" xlink:href="#F"/><use transform="matrix(0.018,0,0,0.018,72.018,0)" xlink:href="#E"/><use transform="matrix(0.018,0,0,0.018,76.014,0)" xlink:href="#y"/><use transform="matrix(0.018,0,0,0.018,86.02199999999999,0)" xlink:href="#S"/></g><path fill="#3d4752" d="M495 0h-74v-77c-45 65-95 92-167 92C113 15 26-90 26-267c0-167 89-272 225-272 70 0 126 28 161 81v-271h83V0zm-83-260c0-121-57-201-147-201-91 0-152 77-152 199S174-63 266-63c88 0 146-76 146-197" id="Y"/><g id="n"><use transform="matrix(0.018,0,0,0.018,0,0)" xlink:href="#V"/><use transform="matrix(0.018,0,0,0.018,12.815999999999999,0)" xlink:href="#H"/><use transform="matrix(0.018,0,0,0.018,22.823999999999998,0)" xlink:href="#W"/><use transform="matrix(0.018,0,0,0.018,31.823999999999998,0)" xlink:href="#H"/><use transform="matrix(0.018,0,0,0.018,41.831999999999994,0)" xlink:href="#L"/><use transform="matrix(0.018,0,0,0.018,48.366,0)" xlink:href="#X"/><use transform="matrix(0.018,0,0,0.018,57.00599999999999,0)" xlink:href="#H"/><use transform="matrix(0.018,0,0,0.018,67.014,0)" xlink:href="#Y"/></g><path fill="#3d4752" d="M617-515c0 121-84 206-204 206H184V0H91v-729h301c144 0 225 77 225 214zm-97-4c0-80-53-128-142-128H184v256h194c89 0 142-48 142-128" id="Z"/><g id="o"><use transform="matrix(0.018,0,0,0.018,0,0)" xlink:href="#Z"/><use transform="matrix(0.018,0,0,0.018,11.466,0)" xlink:href="#R"/><use transform="matrix(0.018,0,0,0.018,21.473999999999997,0)" xlink:href="#F"/><use transform="matrix(0.018,0,0,0.018,26.477999999999994,0)" xlink:href="#L"/><use transform="matrix(0.018,0,0,0.018,32.38199999999999,0)" xlink:href="#y"/><use transform="matrix(0.018,0,0,0.018,42.389999999999986,0)" xlink:href="#S"/></g><g id="p"><use transform="matrix(0.018,0,0,0.018,0,0)" xlink:href="#Q"/><use transform="matrix(0.018,0,0,0.018,10.008,0)" xlink:href="#y"/><use transform="matrix(0.018,0,0,0.018,20.016,0)" xlink:href="#R"/><use transform="matrix(0.018,0,0,0.018,30.023999999999997,0)" xlink:href="#S"/></g><path fill="#3d4752" d="M347 0h-88v-505H102v-63c136-17 156-32 187-141h58V0" id="aa"/><use transform="matrix(0.018,0,0,0.018,0,0)" xlink:href="#aa" id="q"/><path fill="#3d4752" d="M511-501c0 87-51 161-150 214l-100 54c-87 51-119 88-128 146h373V0H34c8-156 51-224 199-307 72-40 188-97 188-192 0-76-60-133-140-133-87 0-136 50-143 169H50c5-172 89-246 234-246 134 0 227 88 227 208" id="ab"/><use transform="matrix(0.018,0,0,0.018,0,0)" xlink:href="#ab" id="r"/><path fill="#3d4752" d="M506-206c0 134-94 221-240 221C121 15 43-56 32-214h88c6 103 53 151 149 151 92 0 147-53 147-142 0-95-78-135-195-125v-74c141 0 174-31 174-107 0-75-47-121-125-121-90 0-133 47-135 152H47c3-151 79-229 222-229 135 0 216 73 216 195 0 71-33 117-99 143 85 29 120 79 120 165" id="ac"/><use transform="matrix(0.018,0,0,0.018,0,0)" xlink:href="#ac" id="s"/><path fill="#3d4752" d="M520-170H415V0h-88v-170H28v-93l322-446h65v460h105v79zm-193-79v-310L105-249h222" id="ad"/><use transform="matrix(0.018,0,0,0.018,0,0)" xlink:href="#ad" id="t"/><path fill="#3d4752" d="M513-235C513-85 413 15 270 15 144 15 64-41 35-182h88c21 80 68 119 145 119 96 0 155-58 155-160 0-105-60-166-155-166-55 0-89 17-130 66H57l53-371h366v87H181l-28 183c41-30 81-43 131-43 136 0 229 92 229 232" id="ae"/><use transform="matrix(0.018,0,0,0.018,0,0)" xlink:href="#ae" id="u"/><path fill="#3d4752" d="M523-268c0 170-90 283-228 283-73 0-126-29-166-90V0H54v-729h83v276c39-59 90-86 162-86 138 0 224 101 224 271zm-87 5c0-117-60-198-153-198-88 0-146 76-146 199 0 119 58 199 146 199 91 0 153-81 153-200" id="af"/><g id="v"><use transform="matrix(0.018,0,0,0.018,0,0)" xlink:href="#Q"/><use transform="matrix(0.018,0,0,0.018,10.008,0)" xlink:href="#E"/><use transform="matrix(0.018,0,0,0.018,14.003999999999998,0)" xlink:href="#af"/><use transform="matrix(0.018,0,0,0.018,24.011999999999997,0)" xlink:href="#L"/><use transform="matrix(0.018,0,0,0.018,29.915999999999997,0)" xlink:href="#R"/><use transform="matrix(0.018,0,0,0.018,39.923999999999985,0)" xlink:href="#L"/><use transform="matrix(0.018,0,0,0.018,46.367999999999995,0)" xlink:href="#O"/></g><g id="w"><use transform="matrix(0.018,0,0,0.018,0,0)" xlink:href="#M"/><use transform="matrix(0.018,0,0,0.018,12.995999999999999,0)" xlink:href="#R"/><use transform="matrix(0.018,0,0,0.018,23.003999999999998,0)" xlink:href="#L"/><use transform="matrix(0.018,0,0,0.018,28.997999999999998,0)" xlink:href="#Y"/></g></defs></g></svg>