<svg xmlns="http://www.w3.org/2000/svg" xmlns:xlink="http://www.w3.org/1999/xlink" width="960" height="1536"><g transform="translate(0 0)"><path d="M0 0h960v1536H0z" fill="#abddf3"/><path d="M120 639.8c0-2.77 2.24-5 5-5h150c2.76 0 5 2.23 5 5v76.4c0 2.77-2.24 5-5 5H125c-2.76 0-5-2.23-5-5z" stroke="#3d4752" stroke-width="2" fill="#fff"/><use xlink:href="#a" transform="matrix(1,0,0,1,125,639.7910447761194) translate(37.182 43)"/><path d="M280 678h39.8c.1 0 .2-.1.2-.2s.1-.2.2-.2H360" stroke="#3d4752" stroke-width="2" fill="none"/><path d="M291 688h-2v-20h2z" fill="#3d4752"/><path d="M320 678l-.5 3.16-1.43 2.75-2.16 2.17-2.74 1.42-3.16.5-3.16-.5-2.75-1.43-2.17-2.16-1.42-2.74-.5-3.16.5-3.16 1.43-2.75 2.16-2.17 2.74-1.42 3.16-.5 3.16.5 2.75 1.43 2.17 2.16 1.42 2.74z" fill="#fff"/><path d="M313.48 667.55l3.02 1.56 2.4 2.4 1.55 3.02.54 3.32-1 .16 1 .16-.55 3.32-1.56 3.02-2.4 2.4-3.02 1.55-3.48.56-3.48-.55-3.02-1.56-2.4-2.4-1.55-3.02L299 678l.55-3.48 1.56-3.02 2.4-2.4 3.02-1.55L310 667zm-6.32 1.92l-2.47 1.28-1.95 1.94-1.28 2.46L301 678l.47 2.84 1.28 2.47 1.94 1.95 2.46 1.28 2.84.46 2.84-.47 2.47-1.28 1.95-1.94 1.28-2.46.46-2.84-.47-2.84-1.28-2.47-1.94-1.95-2.46-1.28L310 669zM362.4 676.67l.1 1.94H360v-2h2.45z" fill="#3d4752"/><path d="M436.1 616.7c2.15-1.72 5.65-1.72 7.8 0l72.2 57.8c2.15 1.7 2.15 4.5 0 6.24l-72.2 57.78c-2.15 1.72-5.65 1.72-7.8 0l-72.2-57.78c-2.15-1.73-2.15-4.53 0-6.25z" stroke="#3d4752" stroke-width="2" fill="#fff"/><use xlink:href="#b" transform="matrix(1,0,0,1,365,618.5820895522388) translate(50.349000000000004 64)"/><path d="M320 144.03c22.1 0 40 9.56 40 21.34 0 11.8-17.9 21.35-40 21.35H200c-22.1 0-40-9.56-40-21.35 0-11.78 17.9-21.34 40-21.34z" stroke="#3d4752" stroke-width="2" fill="#fff"/><use xlink:href="#c" transform="matrix(1,0,0,1,165,149.02985074626866) translate(21.947000000000003 21)"/><path d="M320 208.06c22.1 0 40 9.56 40 21.34 0 11.8-17.9 21.35-40 21.35H200c-22.1 0-40-9.56-40-21.35 0-11.78 17.9-21.34 40-21.34z" stroke="#3d4752" stroke-width="2" fill="#fff"/><use xlink:href="#d" transform="matrix(1,0,0,1,165,213.0597014925373) translate(30.352999999999994 21)"/><path d="M320 272.1c22.1 0 40 9.55 40 21.33 0 11.8-17.9 21.35-40 21.35H200c-22.1 0-40-9.56-40-21.35 0-11.78 17.9-21.34 40-21.34z" stroke="#3d4752" stroke-width="2" fill="#fff"/><use xlink:href="#e" transform="matrix(1,0,0,1,165,277.08955223880594) translate(71.33 21)"/><path d="M320 336.12c22.1 0 40 9.56 40 21.34 0 11.8-17.9 21.35-40 21.35H200c-22.1 0-40-9.55-40-21.34 0-11.78 17.9-21.34 40-21.34z" stroke="#3d4752" stroke-width="2" fill="#fff"/><use xlink:href="#f" transform="matrix(1,0,0,1,165,341.11940298507466) translate(80.447 21)"/><path d="M320 400.15c22.1 0 40 9.55 40 21.34 0 11.78-17.9 21.34-40 21.34H200c-22.1 0-40-9.56-40-21.35 0-11.8 17.9-21.35 40-21.35z" stroke="#3d4752" stroke-width="2" fill="#fff"/><use xlink:href="#g" transform="matrix(1,0,0,1,165,405.1492537313433) translate(74.399 21)"/><path d="M320 464.18c22.1 0 40 9.55 40 21.34 0 11.8-17.9 21.35-40 21.35H200c-22.1 0-40-9.56-40-21.35 0-11.8 17.9-21.34 40-21.34z" stroke="#3d4752" stroke-width="2" fill="#fff"/><use xlink:href="#h" transform="matrix(1,0,0,1,165,469.179104477612) translate(60.053000000000004 21)"/><path d="M320 528.2c22.1 0 40 9.56 40 21.35 0 11.8-17.9 21.35-40 21.35H200c-22.1 0-40-9.56-40-21.35 0-11.8 17.9-21.34 40-21.34z" stroke="#3d4752" stroke-width="2" fill="#fff"/><use xlink:href="#i" transform="matrix(1,0,0,1,165,533.2089552238806) translate(34.799 21)"/><path d="M160 229.4h-35c-2.76 0-5 2.24-5 5V595c0 2.76 2.24 5 5 5h70c2.76 0 5 2.24 5 5v29.8" stroke="#3d4752" stroke-width="2" fill="none"/><path d="M160 229.4l.03.82.02.18H160v-2h.06z" fill="#3d4752"/><path d="M160 293.43h-35c-2.76 0-5 2.24-5 5V595c0 2.76 2.24 5 5 5h70c2.76 0 5 2.24 5 5v29.8" stroke="#3d4752" stroke-width="2" fill="none"/><path d="M160 293.43l.03.82.02.18H160v-2h.06z" fill="#3d4752"/><path d="M160 357.46h-35c-2.76 0-5 2.24-5 5V595c0 2.76 2.24 5 5 5h70c2.76 0 5 2.24 5 5v29.8" stroke="#3d4752" stroke-width="2" fill="none"/><path d="M160 357.46l.03.82.02.18H160v-2h.06z" fill="#3d4752"/><path d="M160 421.5h-35c-2.76 0-5 2.23-5 5V595c0 2.76 2.24 5 5 5h70c2.76 0 5 2.24 5 5v29.8" stroke="#3d4752" stroke-width="2" fill="none"/><path d="M160 421.5l.03.8.02.2H160v-2h.06z" fill="#3d4752"/><path d="M160 485.52h-35c-2.76 0-5 2.24-5 5V595c0 2.76 2.24 5 5 5h70c2.76 0 5 2.24 5 5v29.8" stroke="#3d4752" stroke-width="2" fill="none"/><path d="M160 485.52l.03.82.02.18H160v-2h.06z" fill="#3d4752"/><path d="M160 549.55h-35c-2.76 0-5 2.24-5 5V595c0 2.76 2.24 5 5 5h70c2.76 0 5 2.24 5 5v29.8" stroke="#3d4752" stroke-width="2" fill="none"/><path d="M160 549.55l.03.82.02.18H160v-2h.06z" fill="#3d4752"/><path d="M517.47 677.6h41.07c.1 0 .2.1.2.2s.08.2.2.2H600M517.47 677.6h-3" stroke="#3d4752" stroke-width="2" fill="none"/><path d="M600 668v1.12L582.24 678l17.76 8.88V688l-.45.9-21.8-10.9 21.8-10.9z" fill="#3d4752"/><path d="M600 639.8c0-2.77 2.24-5 5-5h150c2.76 0 5 2.23 5 5v76.4c0 2.77-2.24 5-5 5H605c-2.76 0-5-2.23-5-5z" stroke="#3d4752" stroke-width="2" fill="#fff"/><use xlink:href="#j" transform="matrix(1,0,0,1,605,639.7910447761194) translate(14.799 43)"/><use xlink:href="#k" transform="matrix(1,0,0,1,605,639.7910447761194) translate(91.767 43)"/><path d="M160 165.37h-35c-2.76 0-5 2.24-5 5V595c0 2.76 2.24 5 5 5h70c2.76 0 5 2.24 5 5v29.8" stroke="#3d4752" stroke-width="2" fill="none"/><path d="M160 165.37l.03.82.02.17H160v-2h.06z" fill="#3d4752"/><path d="M660 144.03c22.1 0 40 9.56 40 21.34 0 11.8-17.9 21.35-40 21.35H540c-22.1 0-40-9.56-40-21.35 0-11.78 17.9-21.34 40-21.34z" stroke="#3d4752" stroke-width="2" fill="#fff"/><use xlink:href="#c" transform="matrix(1,0,0,1,505,149.02985074626866) translate(21.947000000000003 21)"/><path d="M660 208.06c22.1 0 40 9.56 40 21.34 0 11.8-17.9 21.35-40 21.35H540c-22.1 0-40-9.56-40-21.35 0-11.78 17.9-21.34 40-21.34z" stroke="#3d4752" stroke-width="2" fill="#fff"/><use xlink:href="#l" transform="matrix(1,0,0,1,505,213.0597014925373) translate(51.187999999999995 21)"/><path d="M660 272.1c22.1 0 40 9.55 40 21.33 0 11.8-17.9 21.35-40 21.35H540c-22.1 0-40-9.56-40-21.35 0-11.78 17.9-21.34 40-21.34z" stroke="#3d4752" stroke-width="2" fill="#fff"/><use xlink:href="#m" transform="matrix(1,0,0,1,505,277.08955223880594) translate(56.01199999999999 21)"/><path d="M660 336.12c22.1 0 40 9.56 40 21.34 0 11.8-17.9 21.35-40 21.35H540c-22.1 0-40-9.55-40-21.34 0-11.78 17.9-21.34 40-21.34z" stroke="#3d4752" stroke-width="2" fill="#fff"/><use xlink:href="#n" transform="matrix(1,0,0,1,505,341.11940298507466) translate(57.47 21)"/><path d="M660 400.15c22.1 0 40 9.55 40 21.34 0 11.78-17.9 21.34-40 21.34H540c-22.1 0-40-9.56-40-21.35 0-11.8 17.9-21.35 40-21.35z" stroke="#3d4752" stroke-width="2" fill="#fff"/><use xlink:href="#o" transform="matrix(1,0,0,1,505,405.1492537313433) translate(66.587 21)"/><path d="M660 464.18c22.1 0 40 9.55 40 21.34 0 11.8-17.9 21.35-40 21.35H540c-22.1 0-40-9.56-40-21.35 0-11.8 17.9-21.34 40-21.34z" stroke="#3d4752" stroke-width="2" fill="#fff"/><use xlink:href="#p" transform="matrix(1,0,0,1,505,469.179104477612) translate(60.539 21)"/><path d="M660 528.2c22.1 0 40 9.56 40 21.35 0 11.8-17.9 21.35-40 21.35H540c-22.1 0-40-9.56-40-21.35 0-11.8 17.9-21.34 40-21.34z" stroke="#3d4752" stroke-width="2" fill="#fff"/><use xlink:href="#q" transform="matrix(1,0,0,1,505,533.2089552238806) translate(45.302 21)"/><path d="M700 229.4h55c2.76 0 5 2.24 5 5V595c0 2.76-2.24 5-5 5h-70c-2.76 0-5 2.24-5 5v29.8" stroke="#3d4752" stroke-width="2" fill="none"/><path d="M700 230.4h-.06l.06-1-.03-.82-.02-.18h.05z" fill="#3d4752"/><path d="M700 293.43h55c2.76 0 5 2.24 5 5V595c0 2.76-2.24 5-5 5h-70c-2.76 0-5 2.24-5 5v29.8" stroke="#3d4752" stroke-width="2" fill="none"/><path d="M700 294.43h-.06l.06-1-.03-.82-.02-.17h.05z" fill="#3d4752"/><path d="M700 357.46h55c2.76 0 5 2.24 5 5V595c0 2.76-2.24 5-5 5h-70c-2.76 0-5 2.24-5 5v29.8" stroke="#3d4752" stroke-width="2" fill="none"/><path d="M700 358.46h-.06l.06-1-.03-.82-.02-.18h.05z" fill="#3d4752"/><path d="M700 421.5h55c2.76 0 5 2.23 5 5V595c0 2.76-2.24 5-5 5h-70c-2.76 0-5 2.24-5 5v29.8" stroke="#3d4752" stroke-width="2" fill="none"/><path d="M700 422.5h-.06l.06-1-.03-.83-.02-.18h.05z" fill="#3d4752"/><path d="M700 485.52h55c2.76 0 5 2.24 5 5V595c0 2.76-2.24 5-5 5h-70c-2.76 0-5 2.24-5 5v29.8" stroke="#3d4752" stroke-width="2" fill="none"/><path d="M700 486.52h-.06l.06-1-.03-.82-.02-.18h.05z" fill="#3d4752"/><path d="M700 549.55h55c2.76 0 5 2.24 5 5V595c0 2.76-2.24 5-5 5h-70c-2.76 0-5 2.24-5 5v29.8" stroke="#3d4752" stroke-width="2" fill="none"/><path d="M700 550.55h-.06l.06-1-.03-.82-.02-.18h.05z" fill="#3d4752"/><path d="M700 165.37h55c2.76 0 5 2.24 5 5V595c0 2.76-2.24 5-5 5h-70c-2.76 0-5 2.24-5 5v29.8" stroke="#3d4752" stroke-width="2" fill="none"/><path d="M700 166.37h-.06l.06-1-.03-.82-.02-.18h.05z" fill="#3d4752"/><path d="M660 80c22.1 0 40 9.56 40 21.34 0 11.8-17.9 21.35-40 21.35H540c-22.1 0-40-9.57-40-21.36C500 89.56 517.9 80 540 80z" stroke="#3d4752" stroke-width="2" fill="#fff"/><use xlink:href="#r" transform="matrix(1,0,0,1,505,85) translate(48.452000000000005 21)"/><path d="M700 101.34h55c2.76 0 5 2.24 5 5V595c0 2.76-2.24 5-5 5h-70c-2.76 0-5 2.24-5 5v29.8" stroke="#3d4752" stroke-width="2" fill="none"/><path d="M700 102.34h-.06l.06-1-.03-.82-.02-.18h.05z" fill="#3d4752"/><path d="M680 721.2V765c0 2.76-2.24 5-5 5H205c-2.76 0-5 2.24-5 5v12" stroke="#3d4752" stroke-width="2" fill="none"/><path d="M690 742.2h-20v-2h20zM201 789l-.9-.15-1.1.15v-2h2z" fill="#3d4752"/><path d="M196.1 790.14c2.15-1.73 5.65-1.73 7.8 0l72.2 57.78c2.15 1.73 2.15 4.52 0 6.25l-72.2 57.78c-2.15 1.73-5.65 1.73-7.8 0l-72.2-57.78c-2.15-1.73-2.15-4.52 0-6.25z" stroke="#3d4752" stroke-width="2" fill="#fff"/><use xlink:href="#s" transform="matrix(1,0,0,1,125,792.0149253731345) translate(58.629000000000005 64)"/><path d="M760 678h35c2.76 0 5 2.24 5 5v104" stroke="#3d4752" stroke-width="2" fill="none"/><path d="M782.24 678l-21.8 10.9-.44-.9v-1.12l17.76-8.88-17.76-8.88V668l.45-.9zM801 789l-.9-.15-1.1.15v-2h2z" fill="#3d4752"/><path d="M796.1 790.14c2.15-1.73 5.65-1.73 7.8 0l72.2 57.78c2.15 1.73 2.15 4.52 0 6.25l-72.2 57.78c-2.15 1.73-5.65 1.73-7.8 0l-72.2-57.78c-2.15-1.73-2.15-4.52 0-6.25z" stroke="#3d4752" stroke-width="2" fill="#fff"/><use xlink:href="#t" transform="matrix(1,0,0,1,725,792.0149253731345) translate(41.925000000000004 64)"/><use xlink:href="#u" transform="matrix(1,0,0,1,725,792.0149253731345) translate(92.037 64)"/><path d="M200 915.07v68.7" stroke="#3d4752" stroke-width="2" fill="none"/><path d="M201 915.07h-2v-1.98l.9.14 1.1-.16zM210.9 983.33l-.9.45h-1.12L200 966l-8.88 17.78H190l-.9-.45 10.9-21.8z" fill="#3d4752"/><path d="M120 988.78c0-2.77 2.24-5 5-5h150c2.76 0 5 2.23 5 5v69.55c0 2.76-2.24 5-5 5H125c-2.76 0-5-2.24-5-5z" stroke="#3d4752" stroke-width="2" fill="#fff"/><use xlink:href="#v" transform="matrix(1,0,0,1,125,988.776119402985) translate(38.64 39.5)"/><use xlink:href="#w" transform="matrix(1,0,0,1,125,988.776119402985) translate(75.702 39.5)"/><path d="M280 1023.55h39.76c.13 0 .24.1.24.24 0 .12.1.23.24.23H360" stroke="#3d4752" stroke-width="2" fill="none"/><path d="M302.24 1023.55l-21.8 10.9-.44-.9v-1.12l17.76-8.88-17.76-8.88v-1.12l.45-.9z" fill="#3d4752"/><path d="M320 1023.55l-.34 2.6-1 2.4-1.6 2.07-2.07 1.6-2.4 1-2.6.33-2.6-.34-2.4-.98-2.07-1.6-1.6-2.08-1-2.4-.33-2.6.5-3.15 1.43-2.75 2.16-2.17 2.74-1.42 3.16-.5 3.16.5 2.75 1.42 2.17 2.17 1.42 2.74z" fill="#fff"/><path d="M313.48 1013.1l3.02 1.56 2.4 2.4 1.55 3 .54 3.33-1 .15 1 .13-.37 2.73-1.1 2.65-1.75 2.3-2.28 1.74-2.64 1.1-2.86.36-2.86-.37-2.64-1.1-2.28-1.76-1.76-2.3-1.1-2.63-.37-2.86.55-3.47 1.56-3.02 2.4-2.4 3.02-1.55 3.48-.56zm-6.32 1.92l-2.47 1.28-1.95 1.94-1.28 2.47-.46 2.87.3 2.32.9 2.14 1.44 1.87 1.87 1.45 2.17.9 2.33.3 2.33-.3 2.16-.9 1.86-1.44 1.43-1.86.9-2.15.3-2.33-.47-2.86-1.28-2.46-1.94-1.94-2.46-1.28-2.84-.45zM362.4 1023.08l.1 1.95H360v-2h2.45z" fill="#3d4752"/><path d="M436.1 963.12c2.15-1.72 5.65-1.72 7.8 0l72.2 57.8c2.15 1.7 2.15 4.5 0 6.23l-72.2 57.8c-2.15 1.7-5.65 1.7-7.8 0l-72.2-57.8c-2.15-1.72-2.15-4.52 0-6.24z" stroke="#3d4752" stroke-width="2" fill="#fff"/><use xlink:href="#t" transform="matrix(1,0,0,1,365,965) translate(41.925000000000004 64)"/><use xlink:href="#u" transform="matrix(1,0,0,1,365,965) translate(92.037 64)"/><path d="M520 1024.03h39.76c.13 0 .24-.1.24-.24 0-.14.1-.25.24-.25H600" stroke="#3d4752" stroke-width="2" fill="none"/><path d="M520 1025.03h-2.45l.04-.06-.1-1.94h2.5zM581 1033.55h-2v-20h2z" fill="#3d4752"/><path d="M600 988.78c0-2.77 2.24-5 5-5h150c2.76 0 5 2.23 5 5v69.55c0 2.76-2.24 5-5 5H605c-2.76 0-5-2.24-5-5z" stroke="#3d4752" stroke-width="2" fill="#fff"/><use xlink:href="#x" transform="matrix(1,0,0,1,605,988.776119402985) translate(33.825 39.5)"/><use xlink:href="#w" transform="matrix(1,0,0,1,605,988.776119402985) translate(80.517 39.5)"/><path d="M800 913.2v105.35c0 2.76-2.24 5-5 5h-35M800 913.2v-3" stroke="#3d4752" stroke-width="2" fill="none"/><path d="M782.24 1023.55l-21.8 10.9-.44-.9v-1.12l17.76-8.88-17.76-8.88v-1.12l.45-.9z" fill="#3d4752"/><path d="M320 1131.15c22.1 0 40 9.55 40 21.34 0 11.78-17.9 21.34-40 21.34H200c-22.1 0-40-9.56-40-21.35 0-11.8 17.9-21.35 40-21.35z" stroke="#3d4752" stroke-width="2" fill="#fff"/><use xlink:href="#y" transform="matrix(1,0,0,1,165,1136.1492537313434) translate(20.939000000000007 21)"/><path d="M320 1195.18c22.1 0 40 9.55 40 21.34 0 11.8-17.9 21.35-40 21.35H200c-22.1 0-40-9.56-40-21.35 0-11.8 17.9-21.34 40-21.34z" stroke="#3d4752" stroke-width="2" fill="#fff"/><use xlink:href="#r" transform="matrix(1,0,0,1,165,1200.179104477612) translate(48.452000000000005 21)"/><path d="M320 1259.2c22.1 0 40 9.56 40 21.35 0 11.8-17.9 21.35-40 21.35H200c-22.1 0-40-9.56-40-21.35 0-11.8 17.9-21.34 40-21.34z" stroke="#3d4752" stroke-width="2" fill="#fff"/><use xlink:href="#z" transform="matrix(1,0,0,1,165,1264.2089552238808) translate(16.12400000000001 21)"/><path d="M320 1323.24c22.1 0 40 9.55 40 21.34 0 11.8-17.9 21.35-40 21.35H200c-22.1 0-40-9.56-40-21.35 0-11.8 17.9-21.34 40-21.34z" stroke="#3d4752" stroke-width="2" fill="#fff"/><use xlink:href="#A" transform="matrix(1,0,0,1,165,1328.2388059701493) translate(61.304 21)"/><path d="M320 1387.27c22.1 0 40 9.55 40 21.34 0 11.8-17.9 21.36-40 21.36H200c-22.1 0-40-9.56-40-21.35 0-11.78 17.9-21.33 40-21.33z" stroke="#3d4752" stroke-width="2" fill="#fff"/><use xlink:href="#B" transform="matrix(1,0,0,1,165,1392.2686567164178) translate(60.602000000000004 21)"/><path d="M160 1216.52h-35c-2.76 0-5-2.24-5-5v-116.97c0-2.76 2.24-5 5-5h70c2.76 0 5-2.24 5-5v-21.22" stroke="#3d4752" stroke-width="2" fill="none"/><path d="M160 1216.52l.03.82.02.18H160v-2h.06z" fill="#3d4752"/><path d="M160 1280.55h-35c-2.76 0-5-2.24-5-5v-181c0-2.76 2.24-5 5-5h70c2.76 0 5-2.24 5-5v-21.22" stroke="#3d4752" stroke-width="2" fill="none"/><path d="M160 1280.55l.03.82.02.18H160v-2h.06z" fill="#3d4752"/><path d="M160 1344.58h-35c-2.76 0-5-2.24-5-5v-245.03c0-2.76 2.24-5 5-5h70c2.76 0 5-2.24 5-5v-21.22" stroke="#3d4752" stroke-width="2" fill="none"/><path d="M160 1344.58l.03.82.02.18H160v-2h.06z" fill="#3d4752"/><path d="M160 1408.6h-35c-2.76 0-5-2.23-5-5v-309.05c0-2.76 2.24-5 5-5h70c2.76 0 5-2.24 5-5v-21.22" stroke="#3d4752" stroke-width="2" fill="none"/><path d="M160 1408.6l.03.83.02.18H160v-2h.06z" fill="#3d4752"/><path d="M160 1152.5h-35c-2.76 0-5-2.25-5-5v-52.95c0-2.76 2.24-5 5-5h70c2.76 0 5-2.24 5-5v-21.22" stroke="#3d4752" stroke-width="2" fill="none"/><path d="M160 1152.5l.03.8.02.2H160v-2h.06z" fill="#3d4752"/><path d="M660 1130.75c22.1 0 40 9.55 40 21.34 0 11.78-17.9 21.33-40 21.33H540c-22.1 0-40-9.55-40-21.34 0-11.8 17.9-21.35 40-21.35z" stroke="#3d4752" stroke-width="2" fill="#fff"/><use xlink:href="#z" transform="matrix(1,0,0,1,505,1135.7462686567167) translate(16.12400000000001 21)"/><path d="M660 1194.78c22.1 0 40 9.55 40 21.34 0 11.8-17.9 21.34-40 21.34H540c-22.1 0-40-9.55-40-21.34 0-11.8 17.9-21.34 40-21.34z" stroke="#3d4752" stroke-width="2" fill="#fff"/><use xlink:href="#C" transform="matrix(1,0,0,1,505,1199.7761194029854) translate(50.864 21)"/><path d="M660 1258.8c22.1 0 40 9.56 40 21.35 0 11.8-17.9 21.34-40 21.34H540c-22.1 0-40-9.56-40-21.35 0-11.8 17.9-21.34 40-21.34z" stroke="#3d4752" stroke-width="2" fill="#fff"/><use xlink:href="#D" transform="matrix(1,0,0,1,505,1263.805970149254) translate(75.72200000000001 21)"/><path d="M700 1152.1h45c2.76 0 5-2.25 5-5v-52.55c0-2.76-2.24-5-5-5h-60c-2.76 0-5-2.24-5-5v-21.22" stroke="#3d4752" stroke-width="2" fill="none"/><path d="M700 1153.1h-.06l.06-1-.03-.83-.02-.18h.05z" fill="#3d4752"/><path d="M700 1216.12h45c2.76 0 5-2.24 5-5v-116.57c0-2.76-2.24-5-5-5h-60c-2.76 0-5-2.24-5-5v-21.22" stroke="#3d4752" stroke-width="2" fill="none"/><path d="M700 1217.12h-.06l.06-1-.03-.82-.02-.18h.05z" fill="#3d4752"/><path d="M700 1280.15h45c2.76 0 5-2.24 5-5v-180.6c0-2.76-2.24-5-5-5h-60c-2.76 0-5-2.24-5-5v-21.22" stroke="#3d4752" stroke-width="2" fill="none"/><path d="M700 1281.15h-.06l.06-1-.03-.82-.02-.18h.05z" fill="#3d4752"/><defs><path fill="#3d4752" d="M491-83l3 70S383 10 304 10C97 10 51-117 51-346c0-235 49-360 253-360 91 0 191 23 191 23l-4 69s-109-17-179-17c-155 0-182 93-182 285 0 188 26 281 184 281 62 0 177-18 177-18" id="E"/><path fill="#3d4752" d="M397-500h74V0h-74v-32s-78 42-148 42C109 10 80-54 80-239v-261h74v260c0 138 12 183 106 183 66 0 137-37 137-37v-406" id="F"/><path fill="#3d4752" d="M416-491l-2 65s-111-16-175-16c-62 0-108 16-108 75 0 47 23 61 122 76 132 21 180 48 180 145 0 117-74 156-195 156C174 10 62-9 62-9l4-65s114 17 165 17c82 0 126-18 126-86 0-52-26-64-126-80-122-19-176-43-176-141 0-110 89-146 180-146 75 0 181 19 181 19" id="G"/><path fill="#3d4752" d="M331-432H173v233c0 109 6 139 72 139 28 0 89-5 89-5l4 65s-66 11-101 11C134 11 98-28 98-172v-260H27v-68h71v-153h75v153h158v68" id="H"/><path fill="#3d4752" d="M265-510c151 0 213 84 213 255 0 173-44 265-213 265S50-74 50-257c0-172 57-253 215-253zm0 453c118 0 136-66 136-198 0-133-40-187-136-187-106 0-138 48-138 185 0 140 20 200 138 200" id="I"/><path fill="#3d4752" d="M162 0H87v-500h75v34c-4-5 120-52 180-41 41 7 72 18 92 42 29-11 112-45 181-45 136 0 169 65 169 250V0h-75v-237c0-153-10-204-105-204-68 0-138 36-140 37 21 98 9 281 12 404h-75v-258c0-138-14-183-105-183-67 0-134 37-134 37V0" id="J"/><path fill="#3d4752" d="M258-58c75 0 183-9 183-9l2 61S330 10 249 10C99 10 50-77 50-247c0-190 83-263 210-263 151 0 219 111 197 292H126c1 105 33 160 132 160zM126-279h260c0-120-39-164-126-164-86 0-134 47-134 164" id="K"/><path fill="#3d4752" d="M87 0v-500h75v66s77-58 174-76v78c-94 18-174 69-174 69V0H87" id="L"/><g id="a"><use transform="matrix(0.018,0,0,0.018,0,0)" xlink:href="#E"/><use transform="matrix(0.018,0,0,0.018,9.648,0)" xlink:href="#F"/><use transform="matrix(0.018,0,0,0.018,19.71,0)" xlink:href="#G"/><use transform="matrix(0.018,0,0,0.018,28.512,0)" xlink:href="#H"/><use transform="matrix(0.018,0,0,0.018,35.046,0)" xlink:href="#I"/><use transform="matrix(0.018,0,0,0.018,44.55,0)" xlink:href="#J"/><use transform="matrix(0.018,0,0,0.018,60.102,0)" xlink:href="#K"/><use transform="matrix(0.018,0,0,0.018,69.228,0)" xlink:href="#L"/></g><path fill="#3d4752" d="M87 222v-722h75v35s75-45 149-45c126 0 181 75 181 254 0 196-63 266-218 266-47 0-98-8-112-11v223H87zm214-663c-66 0-139 39-139 39v334c13 3 65 11 108 11 110 0 146-55 146-201 0-135-43-183-115-183" id="M"/><path fill="#3d4752" d="M84 0v-718h74V0H84" id="N"/><path fill="#3d4752" d="M433-347v246c2 32 26 42 58 46l-3 65c-60 0-92-11-118-38 0 0-90 38-185 38C98 10 49-45 49-143c0-96 49-139 152-148l158-15c7-80-16-132-87-132-73 0-191 13-191 13l-3-65s120-20 197-20c106 0 158 50 158 163zm-74 102l-148 12c-61 6-86 37-86 88 0 58 26 90 71 90 76 0 163-30 163-30v-160" id="O"/><path fill="#3d4752" d="M257-510c46 0 136 15 136 15l-2 65s-80-9-118-9c-115 0-146 48-146 180 0 146 23 199 146 199 38 0 119-9 119-9l3 65s-94 14-139 14C96 10 50-63 50-259c0-181 58-251 207-251" id="P"/><g id="b"><use transform="matrix(0.018,0,0,0.018,0,0)" xlink:href="#M"/><use transform="matrix(0.018,0,0,0.018,9.755999999999998,0)" xlink:href="#N"/><use transform="matrix(0.018,0,0,0.018,14.111999999999998,0)" xlink:href="#O"/><use transform="matrix(0.018,0,0,0.018,23.507999999999996,0)" xlink:href="#P"/><use transform="matrix(0.018,0,0,0.018,31.373999999999995,0)" xlink:href="#K"/><use transform="matrix(0.018,0,0,0.018,40.5,0)" xlink:href="#G"/></g><path fill="#3d4752" d="M27 14h428v70H27V14" id="Q"/><path fill="#3d4752" d="M162 0H87v-500h75v33s84-43 155-43c137 0 168 68 168 250V0h-74v-259c0-133-15-182-106-182-66 0-143 37-143 37V0" id="R"/><path fill="#3d4752" d="M308-510c136 0 183 72 183 251 0 198-54 269-236 269C195 10 87-1 87-1v-717h75v241s75-33 146-33zM254-57c137 0 161-62 161-200 0-130-26-184-114-184-66 0-139 27-139 27v351s65 6 92 6" id="S"/><g id="c"><use transform="matrix(0.018,0,0,0.018,0,0)" xlink:href="#E"/><use transform="matrix(0.018,0,0,0.018,9.648,0)" xlink:href="#F"/><use transform="matrix(0.018,0,0,0.018,19.71,0)" xlink:href="#G"/><use transform="matrix(0.018,0,0,0.018,28.512,0)" xlink:href="#H"/><use transform="matrix(0.018,0,0,0.018,35.046,0)" xlink:href="#I"/><use transform="matrix(0.018,0,0,0.018,44.55,0)" xlink:href="#J"/><use transform="matrix(0.018,0,0,0.018,60.102,0)" xlink:href="#K"/><use transform="matrix(0.018,0,0,0.018,69.228,0)" xlink:href="#L"/><use transform="matrix(0.018,0,0,0.018,75.636,0)" xlink:href="#Q"/><use transform="matrix(0.018,0,0,0.018,84.996,0)" xlink:href="#R"/><use transform="matrix(0.018,0,0,0.018,95.22,0)" xlink:href="#F"/><use transform="matrix(0.018,0,0,0.018,105.282,0)" xlink:href="#J"/><use transform="matrix(0.018,0,0,0.018,120.834,0)" xlink:href="#S"/><use transform="matrix(0.018,0,0,0.018,130.572,0)" xlink:href="#K"/><use transform="matrix(0.018,0,0,0.018,139.698,0)" xlink:href="#L"/></g><g id="d"><use transform="matrix(0.018,0,0,0.018,0,0)" xlink:href="#E"/><use transform="matrix(0.018,0,0,0.018,9.648,0)" xlink:href="#F"/><use transform="matrix(0.018,0,0,0.018,19.71,0)" xlink:href="#G"/><use transform="matrix(0.018,0,0,0.018,28.512,0)" xlink:href="#H"/><use transform="matrix(0.018,0,0,0.018,35.046,0)" xlink:href="#I"/><use transform="matrix(0.018,0,0,0.018,44.55,0)" xlink:href="#J"/><use transform="matrix(0.018,0,0,0.018,60.102,0)" xlink:href="#K"/><use transform="matrix(0.018,0,0,0.018,69.228,0)" xlink:href="#L"/><use transform="matrix(0.018,0,0,0.018,75.636,0)" xlink:href="#Q"/><use transform="matrix(0.018,0,0,0.018,84.996,0)" xlink:href="#R"/><use transform="matrix(0.018,0,0,0.018,95.22,0)" xlink:href="#O"/><use transform="matrix(0.018,0,0,0.018,104.61599999999999,0)" xlink:href="#J"/><use transform="matrix(0.018,0,0,0.018,120.168,0)" xlink:href="#K"/></g><path fill="#3d4752" d="M475-687l-7 70s-138-16-196-16c-98 0-151 32-151 110 0 91 48 106 170 133 138 31 199 65 199 189C490-51 405 9 266 9 190 9 53-12 53-12l8-70s133 17 204 17c98 0 147-37 147-133 0-78-41-99-154-122-143-30-214-65-214-201 0-130 87-186 228-186 77 0 203 20 203 20" id="T"/><g id="e"><use transform="matrix(0.018,0,0,0.018,0,0)" xlink:href="#T"/><use transform="matrix(0.018,0,0,0.018,9.612,0)" xlink:href="#H"/><use transform="matrix(0.018,0,0,0.018,16.146,0)" xlink:href="#L"/><use transform="matrix(0.018,0,0,0.018,22.554000000000002,0)" xlink:href="#K"/><use transform="matrix(0.018,0,0,0.018,31.680000000000003,0)" xlink:href="#K"/><use transform="matrix(0.018,0,0,0.018,40.806,0)" xlink:href="#H"/></g><path fill="#3d4752" d="M81 0v-500h74V0H81zm0-613v-87h74v87H81" id="U"/><path fill="#3d4752" d="M24-500h75L224-72h34l125-428h75L250 222h-75L239 0h-73" id="V"/><g id="f"><use transform="matrix(0.018,0,0,0.018,0,0)" xlink:href="#E"/><use transform="matrix(0.018,0,0,0.018,9.648,0)" xlink:href="#U"/><use transform="matrix(0.018,0,0,0.018,13.895999999999999,0)" xlink:href="#H"/><use transform="matrix(0.018,0,0,0.018,20.43,0)" xlink:href="#V"/></g><g id="g"><use transform="matrix(0.018,0,0,0.018,0,0)" xlink:href="#T"/><use transform="matrix(0.018,0,0,0.018,9.612,0)" xlink:href="#H"/><use transform="matrix(0.018,0,0,0.018,16.146,0)" xlink:href="#O"/><use transform="matrix(0.018,0,0,0.018,25.542,0)" xlink:href="#H"/><use transform="matrix(0.018,0,0,0.018,32.076,0)" xlink:href="#K"/></g><path fill="#3d4752" d="M60-622v-74h450v95L153-92v19h357V1H60v-95l357-508v-20H60" id="W"/><path fill="#3d4752" d="M456-700V0h-75v-33s-77 43-152 43C132 10 50-32 50-248c0-175 56-262 209-262 43 0 107 10 122 13v-203h75zM239-59c67 0 142-37 142-37v-335c-15-2-78-11-118-11-105 0-138 65-138 196 0 160 55 187 114 187" id="X"/><g id="h"><use transform="matrix(0.018,0,0,0.018,0,0)" xlink:href="#W"/><use transform="matrix(0.018,0,0,0.018,10.26,0)" xlink:href="#U"/><use transform="matrix(0.018,0,0,0.018,14.508,0)" xlink:href="#M"/><use transform="matrix(0.018,0,0,0.018,24.263999999999996,0)" xlink:href="#Q"/><use transform="matrix(0.018,0,0,0.018,33.623999999999995,0)" xlink:href="#P"/><use transform="matrix(0.018,0,0,0.018,41.489999999999995,0)" xlink:href="#I"/><use transform="matrix(0.018,0,0,0.018,50.99399999999999,0)" xlink:href="#X"/><use transform="matrix(0.018,0,0,0.018,60.767999999999994,0)" xlink:href="#K"/></g><path fill="#3d4752" d="M343-233H167V0H90v-696h253c151 0 221 72 221 223s-70 240-221 240zm-176-74h175c101 0 143-63 143-166 0-102-42-149-143-149H167v315" id="Y"/><path fill="#3d4752" d="M162 0H87v-730h75v254s84-34 154-34c138 0 169 68 169 249V0h-75v-260c0-132-15-181-105-181-67 0-143 29-143 29V0" id="Z"/><g id="i"><use transform="matrix(0.018,0,0,0.018,0,0)" xlink:href="#Y"/><use transform="matrix(0.018,0,0,0.018,10.908,0)" xlink:href="#Z"/><use transform="matrix(0.018,0,0,0.018,21.078,0)" xlink:href="#I"/><use transform="matrix(0.018,0,0,0.018,30.582,0)" xlink:href="#R"/><use transform="matrix(0.018,0,0,0.018,40.806,0)" xlink:href="#K"/><use transform="matrix(0.018,0,0,0.018,49.931999999999995,0)" xlink:href="#Q"/><use transform="matrix(0.018,0,0,0.018,59.291999999999994,0)" xlink:href="#R"/><use transform="matrix(0.018,0,0,0.018,69.51599999999999,0)" xlink:href="#F"/><use transform="matrix(0.018,0,0,0.018,79.57799999999999,0)" xlink:href="#J"/><use transform="matrix(0.018,0,0,0.018,95.13,0)" xlink:href="#S"/><use transform="matrix(0.018,0,0,0.018,104.868,0)" xlink:href="#K"/><use transform="matrix(0.018,0,0,0.018,113.99400000000001,0)" xlink:href="#L"/></g><g id="j"><use transform="matrix(0.018,0,0,0.018,0,0)" xlink:href="#Y"/><use transform="matrix(0.018,0,0,0.018,10.908,0)" xlink:href="#F"/><use transform="matrix(0.018,0,0,0.018,20.97,0)" xlink:href="#L"/><use transform="matrix(0.018,0,0,0.018,27.378000000000004,0)" xlink:href="#P"/><use transform="matrix(0.018,0,0,0.018,35.244,0)" xlink:href="#Z"/><use transform="matrix(0.018,0,0,0.018,45.414,0)" xlink:href="#O"/><use transform="matrix(0.018,0,0,0.018,54.81,0)" xlink:href="#G"/><use transform="matrix(0.018,0,0,0.018,63.612,0)" xlink:href="#K"/></g><path fill="#3d4752" d="M326-63c160 0 194-90 194-281 0-184-37-289-194-289-159 0-194 104-194 289S165-63 326-63zm0 73C110 10 52-112 52-344c0-230 60-362 274-362s273 131 273 362c0 238-59 354-273 354" id="aa"/><g id="k"><use transform="matrix(0.018,0,0,0.018,0,0)" xlink:href="#aa"/><use transform="matrix(0.018,0,0,0.018,11.718,0)" xlink:href="#L"/><use transform="matrix(0.018,0,0,0.018,18.125999999999998,0)" xlink:href="#X"/><use transform="matrix(0.018,0,0,0.018,27.9,0)" xlink:href="#K"/><use transform="matrix(0.018,0,0,0.018,37.025999999999996,0)" xlink:href="#L"/></g><g id="l"><use transform="matrix(0.018,0,0,0.018,0,0)" xlink:href="#aa"/><use transform="matrix(0.018,0,0,0.018,11.718,0)" xlink:href="#L"/><use transform="matrix(0.018,0,0,0.018,18.125999999999998,0)" xlink:href="#X"/><use transform="matrix(0.018,0,0,0.018,27.9,0)" xlink:href="#K"/><use transform="matrix(0.018,0,0,0.018,37.025999999999996,0)" xlink:href="#L"/><use transform="matrix(0.018,0,0,0.018,43.434,0)" xlink:href="#Q"/><use transform="matrix(0.018,0,0,0.018,52.794,0)" xlink:href="#X"/><use transform="matrix(0.018,0,0,0.018,62.568,0)" xlink:href="#O"/><use transform="matrix(0.018,0,0,0.018,71.964,0)" xlink:href="#H"/><use transform="matrix(0.018,0,0,0.018,78.498,0)" xlink:href="#K"/></g><g id="m"><use transform="matrix(0.018,0,0,0.018,0,0)" xlink:href="#T"/><use transform="matrix(0.018,0,0,0.018,9.612,0)" xlink:href="#Z"/><use transform="matrix(0.018,0,0,0.018,19.782,0)" xlink:href="#U"/><use transform="matrix(0.018,0,0,0.018,24.03,0)" xlink:href="#M"/><use transform="matrix(0.018,0,0,0.018,33.786,0)" xlink:href="#Q"/><use transform="matrix(0.018,0,0,0.018,43.145999999999994,0)" xlink:href="#X"/><use transform="matrix(0.018,0,0,0.018,52.92,0)" xlink:href="#O"/><use transform="matrix(0.018,0,0,0.018,62.316,0)" xlink:href="#H"/><use transform="matrix(0.018,0,0,0.018,68.85000000000001,0)" xlink:href="#K"/></g><path fill="#3d4752" d="M-4-622v-74h500v74H285V0h-76v-622H-4" id="ab"/><g id="n"><use transform="matrix(0.018,0,0,0.018,0,0)" xlink:href="#ab"/><use transform="matrix(0.018,0,0,0.018,8.856,0)" xlink:href="#I"/><use transform="matrix(0.018,0,0,0.018,18.36,0)" xlink:href="#Q"/><use transform="matrix(0.018,0,0,0.018,27.72,0)" xlink:href="#T"/><use transform="matrix(0.018,0,0,0.018,37.331999999999994,0)" xlink:href="#H"/><use transform="matrix(0.018,0,0,0.018,43.866,0)" xlink:href="#L"/><use transform="matrix(0.018,0,0,0.018,50.274,0)" xlink:href="#K"/><use transform="matrix(0.018,0,0,0.018,59.4,0)" xlink:href="#K"/><use transform="matrix(0.018,0,0,0.018,68.526,0)" xlink:href="#H"/></g><g id="o"><use transform="matrix(0.018,0,0,0.018,0,0)" xlink:href="#ab"/><use transform="matrix(0.018,0,0,0.018,8.856,0)" xlink:href="#I"/><use transform="matrix(0.018,0,0,0.018,18.36,0)" xlink:href="#Q"/><use transform="matrix(0.018,0,0,0.018,27.72,0)" xlink:href="#E"/><use transform="matrix(0.018,0,0,0.018,37.367999999999995,0)" xlink:href="#U"/><use transform="matrix(0.018,0,0,0.018,41.615999999999985,0)" xlink:href="#H"/><use transform="matrix(0.018,0,0,0.018,48.14999999999999,0)" xlink:href="#V"/></g><g id="p"><use transform="matrix(0.018,0,0,0.018,0,0)" xlink:href="#ab"/><use transform="matrix(0.018,0,0,0.018,8.856,0)" xlink:href="#I"/><use transform="matrix(0.018,0,0,0.018,18.36,0)" xlink:href="#Q"/><use transform="matrix(0.018,0,0,0.018,27.72,0)" xlink:href="#T"/><use transform="matrix(0.018,0,0,0.018,37.331999999999994,0)" xlink:href="#H"/><use transform="matrix(0.018,0,0,0.018,43.866,0)" xlink:href="#O"/><use transform="matrix(0.018,0,0,0.018,53.26200000000001,0)" xlink:href="#H"/><use transform="matrix(0.018,0,0,0.018,59.79599999999999,0)" xlink:href="#K"/></g><g id="q"><use transform="matrix(0.018,0,0,0.018,0,0)" xlink:href="#ab"/><use transform="matrix(0.018,0,0,0.018,8.856,0)" xlink:href="#I"/><use transform="matrix(0.018,0,0,0.018,18.36,0)" xlink:href="#Q"/><use transform="matrix(0.018,0,0,0.018,27.72,0)" xlink:href="#W"/><use transform="matrix(0.018,0,0,0.018,37.98,0)" xlink:href="#U"/><use transform="matrix(0.018,0,0,0.018,42.227999999999994,0)" xlink:href="#M"/><use transform="matrix(0.018,0,0,0.018,51.983999999999995,0)" xlink:href="#Q"/><use transform="matrix(0.018,0,0,0.018,61.343999999999994,0)" xlink:href="#E"/><use transform="matrix(0.018,0,0,0.018,70.99199999999999,0)" xlink:href="#I"/><use transform="matrix(0.018,0,0,0.018,80.496,0)" xlink:href="#X"/><use transform="matrix(0.018,0,0,0.018,90.27,0)" xlink:href="#K"/></g><g id="r"><use transform="matrix(0.018,0,0,0.018,0,0)" xlink:href="#Y"/><use transform="matrix(0.018,0,0,0.018,10.908,0)" xlink:href="#aa"/><use transform="matrix(0.018,0,0,0.018,22.625999999999998,0)" xlink:href="#Q"/><use transform="matrix(0.018,0,0,0.018,31.985999999999997,0)" xlink:href="#R"/><use transform="matrix(0.018,0,0,0.018,42.209999999999994,0)" xlink:href="#F"/><use transform="matrix(0.018,0,0,0.018,52.27199999999999,0)" xlink:href="#J"/><use transform="matrix(0.018,0,0,0.018,67.82399999999998,0)" xlink:href="#S"/><use transform="matrix(0.018,0,0,0.018,77.56199999999998,0)" xlink:href="#K"/><use transform="matrix(0.018,0,0,0.018,86.68799999999999,0)" xlink:href="#L"/></g><g id="s"><use transform="matrix(0.018,0,0,0.018,0,0)" xlink:href="#N"/><use transform="matrix(0.018,0,0,0.018,4.356,0)" xlink:href="#U"/><use transform="matrix(0.018,0,0,0.018,8.604,0)" xlink:href="#G"/><use transform="matrix(0.018,0,0,0.018,17.406,0)" xlink:href="#H"/><use transform="matrix(0.018,0,0,0.018,23.939999999999998,0)" xlink:href="#G"/></g><path fill="#3d4752" d="M165-432V0H91v-432H28v-68h63v-45c0-144 36-182 134-182 35 0 101 7 101 7l-1 62s-56-2-85-2c-56 0-75 24-75 116v44h146v68H165" id="ac"/><g id="t"><use transform="matrix(0.018,0,0,0.018,0,0)" xlink:href="#L"/><use transform="matrix(0.018,0,0,0.018,6.4079999999999995,0)" xlink:href="#K"/><use transform="matrix(0.018,0,0,0.018,15.533999999999999,0)" xlink:href="#ac"/><use transform="matrix(0.018,0,0,0.018,21.546,0)" xlink:href="#K"/><use transform="matrix(0.018,0,0,0.018,30.671999999999997,0)" xlink:href="#L"/><use transform="matrix(0.018,0,0,0.018,37.08,0)" xlink:href="#G"/></g><g id="u"><use transform="matrix(0.018,0,0,0.018,0,0)" xlink:href="#H"/><use transform="matrix(0.018,0,0,0.018,6.534,0)" xlink:href="#I"/></g><path fill="#3d4752" d="M471 0H90v-696h77v622h304V0" id="ad"/><g id="v"><use transform="matrix(0.018,0,0,0.018,0,0)" xlink:href="#ad"/><use transform="matrix(0.018,0,0,0.018,9.234,0)" xlink:href="#U"/><use transform="matrix(0.018,0,0,0.018,13.482,0)" xlink:href="#R"/><use transform="matrix(0.018,0,0,0.018,23.705999999999992,0)" xlink:href="#K"/></g><path fill="#3d4752" d="M85 0v-696h77V0H85" id="ae"/><g id="w"><use transform="matrix(0.018,0,0,0.018,0,0)" xlink:href="#ae"/><use transform="matrix(0.018,0,0,0.018,4.446,0)" xlink:href="#H"/><use transform="matrix(0.018,0,0,0.018,10.98,0)" xlink:href="#K"/><use transform="matrix(0.018,0,0,0.018,20.106,0)" xlink:href="#J"/></g><path fill="#3d4752" d="M162 0H87v-718h75v419l77-4 149-197h84L305-270 475 0h-85L240-229l-78 4V0" id="af"/><g id="x"><use transform="matrix(0.018,0,0,0.018,0,0)" xlink:href="#T"/><use transform="matrix(0.018,0,0,0.018,9.612,0)" xlink:href="#H"/><use transform="matrix(0.018,0,0,0.018,16.146,0)" xlink:href="#I"/><use transform="matrix(0.018,0,0,0.018,25.65,0)" xlink:href="#P"/><use transform="matrix(0.018,0,0,0.018,33.516,0)" xlink:href="#af"/></g><g id="y"><use transform="matrix(0.018,0,0,0.018,0,0)" xlink:href="#ad"/><use transform="matrix(0.018,0,0,0.018,9.234,0)" xlink:href="#U"/><use transform="matrix(0.018,0,0,0.018,13.482,0)" xlink:href="#R"/><use transform="matrix(0.018,0,0,0.018,23.705999999999992,0)" xlink:href="#K"/><use transform="matrix(0.018,0,0,0.018,32.831999999999994,0)" xlink:href="#Q"/><use transform="matrix(0.018,0,0,0.018,42.192,0)" xlink:href="#U"/><use transform="matrix(0.018,0,0,0.018,46.43999999999999,0)" xlink:href="#H"/><use transform="matrix(0.018,0,0,0.018,52.97399999999999,0)" xlink:href="#K"/><use transform="matrix(0.018,0,0,0.018,62.09999999999999,0)" xlink:href="#J"/><use transform="matrix(0.018,0,0,0.018,77.652,0)" xlink:href="#Q"/><use transform="matrix(0.018,0,0,0.018,87.012,0)" xlink:href="#R"/><use transform="matrix(0.018,0,0,0.018,97.23599999999999,0)" xlink:href="#F"/><use transform="matrix(0.018,0,0,0.018,107.29799999999999,0)" xlink:href="#J"/><use transform="matrix(0.018,0,0,0.018,122.85,0)" xlink:href="#S"/><use transform="matrix(0.018,0,0,0.018,132.588,0)" xlink:href="#K"/><use transform="matrix(0.018,0,0,0.018,141.714,0)" xlink:href="#L"/></g><g id="z"><use transform="matrix(0.018,0,0,0.018,0,0)" xlink:href="#T"/><use transform="matrix(0.018,0,0,0.018,9.612,0)" xlink:href="#H"/><use transform="matrix(0.018,0,0,0.018,16.146,0)" xlink:href="#I"/><use transform="matrix(0.018,0,0,0.018,25.65,0)" xlink:href="#P"/><use transform="matrix(0.018,0,0,0.018,33.516,0)" xlink:href="#af"/><use transform="matrix(0.018,0,0,0.018,42.461999999999996,0)" xlink:href="#Q"/><use transform="matrix(0.018,0,0,0.018,51.821999999999996,0)" xlink:href="#U"/><use transform="matrix(0.018,0,0,0.018,56.06999999999999,0)" xlink:href="#H"/><use transform="matrix(0.018,0,0,0.018,62.60399999999999,0)" xlink:href="#K"/><use transform="matrix(0.018,0,0,0.018,71.72999999999999,0)" xlink:href="#J"/><use transform="matrix(0.018,0,0,0.018,87.28199999999998,0)" xlink:href="#Q"/><use transform="matrix(0.018,0,0,0.018,96.64199999999998,0)" xlink:href="#R"/><use transform="matrix(0.018,0,0,0.018,106.86599999999999,0)" xlink:href="#F"/><use transform="matrix(0.018,0,0,0.018,116.928,0)" xlink:href="#J"/><use transform="matrix(0.018,0,0,0.018,132.48,0)" xlink:href="#S"/><use transform="matrix(0.018,0,0,0.018,142.218,0)" xlink:href="#K"/><use transform="matrix(0.018,0,0,0.018,151.344,0)" xlink:href="#L"/></g><path fill="#3d4752" d="M497 145L409 1c-24 6-52 9-83 9C110 10 52-112 52-344c0-230 60-362 274-362s273 131 273 362c0 163-27 268-114 319l84 136zM326-63c160 0 194-90 194-281 0-184-37-289-194-289-159 0-194 104-194 289S165-63 326-63" id="ag"/><g id="A"><use transform="matrix(0.018,0,0,0.018,0,0)" xlink:href="#ag"/><use transform="matrix(0.018,0,0,0.018,11.718,0)" xlink:href="#F"/><use transform="matrix(0.018,0,0,0.018,21.78,0)" xlink:href="#O"/><use transform="matrix(0.018,0,0,0.018,31.176000000000002,0)" xlink:href="#R"/><use transform="matrix(0.018,0,0,0.018,41.4,0)" xlink:href="#H"/><use transform="matrix(0.018,0,0,0.018,47.934,0)" xlink:href="#U"/><use transform="matrix(0.018,0,0,0.018,52.181999999999995,0)" xlink:href="#H"/><use transform="matrix(0.018,0,0,0.018,58.715999999999994,0)" xlink:href="#V"/></g><path fill="#3d4752" d="M337 0H90v-696h247c200 0 256 140 256 337C593-160 540 0 337 0zm176-359c0-146-33-264-176-264H166v550h171c143 0 176-139 176-286" id="ah"/><g id="B"><use transform="matrix(0.018,0,0,0.018,0,0)" xlink:href="#ah"/><use transform="matrix(0.018,0,0,0.018,11.556,0)" xlink:href="#U"/><use transform="matrix(0.018,0,0,0.018,15.803999999999998,0)" xlink:href="#G"/><use transform="matrix(0.018,0,0,0.018,24.605999999999998,0)" xlink:href="#P"/><use transform="matrix(0.018,0,0,0.018,32.471999999999994,0)" xlink:href="#I"/><use transform="matrix(0.018,0,0,0.018,41.97599999999999,0)" xlink:href="#F"/><use transform="matrix(0.018,0,0,0.018,52.03799999999999,0)" xlink:href="#R"/><use transform="matrix(0.018,0,0,0.018,62.261999999999986,0)" xlink:href="#H"/></g><g id="C"><use transform="matrix(0.018,0,0,0.018,0,0)" xlink:href="#ah"/><use transform="matrix(0.018,0,0,0.018,11.556,0)" xlink:href="#K"/><use transform="matrix(0.018,0,0,0.018,20.682,0)" xlink:href="#G"/><use transform="matrix(0.018,0,0,0.018,29.483999999999998,0)" xlink:href="#P"/><use transform="matrix(0.018,0,0,0.018,37.349999999999994,0)" xlink:href="#L"/><use transform="matrix(0.018,0,0,0.018,43.757999999999996,0)" xlink:href="#U"/><use transform="matrix(0.018,0,0,0.018,48.00599999999999,0)" xlink:href="#M"/><use transform="matrix(0.018,0,0,0.018,57.76199999999999,0)" xlink:href="#H"/><use transform="matrix(0.018,0,0,0.018,64.29599999999999,0)" xlink:href="#U"/><use transform="matrix(0.018,0,0,0.018,68.544,0)" xlink:href="#I"/><use transform="matrix(0.018,0,0,0.018,78.04799999999999,0)" xlink:href="#R"/></g><g id="D"><use transform="matrix(0.018,0,0,0.018,0,0)" xlink:href="#Y"/><use transform="matrix(0.018,0,0,0.018,10.908,0)" xlink:href="#L"/><use transform="matrix(0.018,0,0,0.018,17.316,0)" xlink:href="#U"/><use transform="matrix(0.018,0,0,0.018,21.564,0)" xlink:href="#P"/><use transform="matrix(0.018,0,0,0.018,29.429999999999996,0)" xlink:href="#K"/></g></defs></g></svg>