<?xml version="1.0" encoding="UTF-8"?>
<svg id="Layer_2" data-name="Layer 2" xmlns="http://www.w3.org/2000/svg" viewBox="0 0 308.9 55.6">
  <defs>
    <style>
      .cls-1 {
        fill: #0f1b2a;
      }

      .cls-2 {
        fill: #f4c41c;
      }

      .cls-3 {
        fill: #f6f7f9;
        stroke: #5ecbf5;
        stroke-miterlimit: 10;
        stroke-width: 2px;
      }

      .cls-4 {
        fill: #fee87c;
      }
    </style>
  </defs>
  <g id="Layer_1-2" data-name="Layer 1">
    <g>
      <g>
        <path class="cls-1" d="M74.94,10.72c1.77,0,3.27.23,4.5.69,1.23.46,2.37,1.12,3.42,1.98l-2.57,3.05c-.73-.62-1.52-1.08-2.39-1.4s-1.79-.48-2.78-.48c-1.18,0-2.27.31-3.26.94-.99.63-1.78,1.63-2.38,3.02-.6,1.38-.9,3.21-.9,5.47s.29,4.03.86,5.41c.57,1.38,1.35,2.38,2.34,3.02.99.63,2.11.95,3.37.95,1.33,0,2.43-.23,3.3-.7.87-.47,1.66-.98,2.36-1.53l2.38,3.01c-.9.89-2.02,1.64-3.37,2.27s-2.98.94-4.9.94c-2.23,0-4.22-.51-5.96-1.53s-3.12-2.52-4.12-4.5c-1-1.98-1.5-4.42-1.5-7.33s.51-5.27,1.54-7.25c1.03-1.97,2.42-3.47,4.17-4.5s3.71-1.53,5.86-1.53Z"/>
        <path class="cls-1" d="M105.48,24.03c0,2.66-.37,4.99-1.12,6.99-.74,2-1.85,3.56-3.33,4.67-1.48,1.11-3.3,1.67-5.48,1.67s-3.99-.54-5.47-1.63c-1.48-1.09-2.6-2.63-3.34-4.62-.75-1.99-1.12-4.34-1.12-7.06s.37-4.99,1.12-6.99c.74-2,1.86-3.56,3.34-4.67,1.48-1.11,3.31-1.67,5.47-1.67s4.01.54,5.48,1.62,2.59,2.62,3.33,4.62c.75,1.99,1.12,4.35,1.12,7.07ZM100.27,24.03c0-3.22-.37-5.62-1.1-7.17-.73-1.56-1.94-2.34-3.63-2.34s-2.9.78-3.63,2.34c-.73,1.56-1.1,3.96-1.1,7.18s.38,5.63,1.13,7.17c.75,1.54,1.95,2.32,3.6,2.32s2.93-.78,3.65-2.34c.72-1.56,1.08-3.95,1.08-7.16Z"/>
        <path class="cls-1" d="M129.01,23.92c0,2.09-.22,3.88-.67,5.37s-1.07,2.72-1.86,3.7c-.79.98-1.7,1.75-2.72,2.3-1.03.55-2.12.94-3.29,1.17-1.16.23-2.34.34-3.54.34h-6.54V11.27h6.09c1.59,0,3.13.17,4.62.51,1.49.34,2.83.96,4.01,1.86,1.19.9,2.13,2.18,2.83,3.83.7,1.66,1.05,3.81,1.05,6.45ZM123.73,23.92c0-1.9-.17-3.43-.53-4.6-.35-1.17-.83-2.06-1.43-2.69-.6-.62-1.29-1.04-2.05-1.26-.76-.22-1.56-.33-2.38-.33h-1.88v18.02h1.9c.86,0,1.68-.14,2.45-.41.77-.27,1.45-.74,2.04-1.41s1.05-1.6,1.38-2.79c.33-1.19.5-2.7.5-4.53Z"/>
        <path class="cls-1" d="M139.62,15v7h9.05v3.67h-9.05v7.42h10.98v3.71h-16.04V11.27h15.91l-.52,3.73h-10.34Z"/>
        <path class="cls-1" d="M158.17,17.96c0-.57.13-1.07.39-1.51.26-.44.62-.8,1.07-1.06.46-.26.96-.4,1.51-.4.86,0,1.58.29,2.15.87.57.58.86,1.28.86,2.1s-.29,1.52-.86,2.11c-.57.6-1.29.9-2.15.9s-1.54-.3-2.11-.9c-.57-.6-.86-1.3-.86-2.11ZM158.17,31.27c0-.8.29-1.5.86-2.09s1.28-.89,2.11-.89,1.58.3,2.15.89.86,1.29.86,2.09-.29,1.55-.86,2.13c-.57.58-1.29.88-2.15.88s-1.54-.29-2.11-.88c-.57-.58-.86-1.29-.86-2.13Z"/>
        <path class="cls-1" d="M189.94,29.77c0,1.45-.36,2.74-1.09,3.87-.73,1.13-1.78,2.01-3.16,2.64-1.38.63-3.06.95-5.04.95-1.86,0-3.54-.28-5.05-.85-1.51-.57-2.8-1.37-3.87-2.4l1.9-2.14c.89.82,1.9,1.48,3.05,1.97,1.14.49,2.49.73,4.02.73,1.03,0,2-.17,2.9-.51.9-.34,1.62-.86,2.18-1.55s.83-1.58.83-2.65c0-.82-.16-1.53-.48-2.1-.32-.58-.89-1.09-1.7-1.54s-1.94-.89-3.4-1.32c-1.67-.49-3.12-1.05-4.35-1.67-1.23-.62-2.17-1.39-2.84-2.3-.67-.91-1.01-2.04-1.01-3.38,0-1.27.35-2.39,1.05-3.38.7-.98,1.67-1.76,2.91-2.32s2.66-.84,4.27-.84c1.76,0,3.29.25,4.59.75,1.3.5,2.48,1.22,3.54,2.15l-1.88,2.09c-.91-.81-1.89-1.4-2.94-1.76-1.05-.36-2.11-.54-3.19-.54-.92,0-1.77.14-2.54.42-.77.28-1.38.69-1.85,1.24s-.69,1.25-.69,2.09c0,.73.2,1.35.59,1.88s1.06,1.01,1.99,1.45c.93.44,2.21.9,3.82,1.38,1.32.38,2.54.86,3.67,1.43,1.13.57,2.03,1.35,2.72,2.33s1.03,2.28,1.03,3.91Z"/>
        <path class="cls-1" d="M212.45,11.38v17.19c0,1.71-.35,3.22-1.04,4.52-.7,1.3-1.67,2.32-2.94,3.05-1.26.73-2.75,1.09-4.46,1.09s-3.25-.37-4.5-1.1c-1.25-.73-2.21-1.75-2.87-3.05s-1-2.81-1-4.5V11.38h3.18v17.3c0,1.93.45,3.38,1.36,4.34.91.96,2.18,1.44,3.83,1.44s2.94-.48,3.85-1.44c.9-.96,1.36-2.41,1.36-4.34V11.38h3.23Z"/>
        <path class="cls-1" d="M236.48,11.38l1.44,25.42h-3.08l-.79-13.27c-.04-.9-.07-1.81-.11-2.73s-.06-1.81-.07-2.66c-.01-.85-.02-1.61-.02-2.27v-1.55l-4.28,17.93h-3.21l-4.6-17.93c.01.36.02.88.04,1.58.01.7.02,1.48.03,2.35s0,1.77-.02,2.69-.05,1.77-.08,2.56l-.68,13.31h-3.01l1.44-25.42h4.47l4.12,17.41,3.93-17.41h4.5Z"/>
        <path class="cls-1" d="M261.14,11.38l1.44,25.42h-3.08l-.79-13.27c-.04-.9-.07-1.81-.11-2.73s-.06-1.81-.07-2.66c-.01-.85-.02-1.61-.02-2.27v-1.55l-4.28,17.93h-3.21l-4.6-17.93c.01.36.02.88.04,1.58.01.7.02,1.48.03,2.35s0,1.77-.02,2.69-.05,1.77-.08,2.56l-.68,13.31h-3.01l1.44-25.42h4.47l4.12,17.41,3.93-17.41h4.5Z"/>
        <path class="cls-1" d="M272.54,14.01v8.57h9.42v2.64h-9.42v9.03h11.56v2.57h-14.77V11.38h14.44l-.37,2.62h-10.86Z"/>
        <path class="cls-1" d="M306.59,18.51c0,1.27-.27,2.38-.82,3.32-.55.95-1.29,1.73-2.22,2.34-.94.62-1.99,1.07-3.16,1.35l7.53,11.28h-3.84l-6.94-10.91h-3.43v10.91h-3.21V11.38h6.54c3.14,0,5.52.6,7.14,1.8,1.62,1.2,2.43,2.98,2.43,5.33ZM303.16,18.51c0-1.64-.47-2.81-1.4-3.52-.93-.71-2.39-1.06-4.36-1.06h-3.69v9.45h3.69c1.82,0,3.24-.37,4.25-1.12,1.01-.75,1.51-2,1.51-3.76Z"/>
      </g>
      <g>
        <circle class="cls-3" cx="23.68" cy="23.68" r="22.68"/>
        <g>
          <circle class="cls-4" cx="23.68" cy="23.68" r="9.78"/>
          <g>
            <path class="cls-2" d="M25.1,11.78c-.47-.06-.94-.09-1.42-.09-2.17,0-4.19.57-5.94,1.58-.35-4.99,3.28-7.85,3.5-8.01-1.27,1.51,1.26,4.29,3.87,6.53Z"/>
            <path class="cls-2" d="M33.1,16.27c-1.56-1.99-3.74-3.47-6.25-4.16,3.37-3.89,8.14-3.19,8.14-3.19-1.98.16-2.15,3.92-1.89,7.35Z"/>
            <path class="cls-2" d="M42.1,21.24c-1.51-1.27-4.29,1.26-6.53,3.87.06-.47.09-.95.09-1.43,0-2.17-.57-4.19-1.58-5.94,4.99-.35,7.85,3.28,8.01,3.5Z"/>
            <path class="cls-2" d="M38.43,34.99c-.16-1.98-3.92-2.15-7.35-1.89,1.99-1.56,3.47-3.74,4.16-6.26,3.89,3.38,3.19,8.15,3.19,8.15Z"/>
            <path class="cls-2" d="M26.12,42.1c1.27-1.51-1.26-4.29-3.87-6.53.47.06.95.09,1.43.09,2.16,0,4.19-.57,5.94-1.58.35,4.99-3.28,7.85-3.5,8.01Z"/>
            <path class="cls-2" d="M20.51,35.24c-3.38,3.89-8.15,3.19-8.15,3.19,1.98-.16,2.15-3.92,1.89-7.35,1.56,1.99,3.74,3.47,6.26,4.16Z"/>
            <path class="cls-2" d="M13.27,29.62c-4.99.35-7.85-3.28-8.01-3.5,1.51,1.27,4.28-1.26,6.53-3.87-.06.47-.09.94-.09,1.42,0,2.16.57,4.19,1.58,5.94Z"/>
            <path class="cls-2" d="M16.27,14.26c-1.99,1.56-3.47,3.74-4.16,6.25-3.89-3.38-3.19-8.14-3.19-8.14.16,1.98,3.91,2.15,7.34,1.89Z"/>
          </g>
        </g>
      </g>
    </g>
  </g>
</svg>