<?xml version="1.0" encoding="UTF-8"?>
<svg id="Layer_2" data-name="Layer 2" xmlns="http://www.w3.org/2000/svg" viewBox="0 0 307.26 55.6">
  <defs>
    <style>
      .cls-1 {
        fill: #0f1b2a;
      }

      .cls-2 {
        fill: #f6f7f9;
        stroke: #0f4c7a;
        stroke-miterlimit: 10;
        stroke-width: 2px;
      }

      .cls-3 {
        fill: #bfd8f1;
      }

      .cls-4 {
        fill: #8fa4b7;
      }
    </style>
  </defs>
  <g id="Layer_1-2" data-name="Layer 1">
    <g>
      <g>
        <path class="cls-1" d="M76.58,10.72c1.77,0,3.27.23,4.5.69,1.23.46,2.37,1.12,3.42,1.98l-2.57,3.05c-.73-.62-1.52-1.08-2.39-1.4-.87-.32-1.79-.48-2.78-.48-1.18,0-2.27.31-3.26.94-.99.63-1.78,1.63-2.38,3.02-.6,1.38-.9,3.21-.9,5.47s.29,4.03.86,5.41c.57,1.38,1.35,2.38,2.34,3.02.99.63,2.11.95,3.37.95,1.33,0,2.43-.23,3.3-.7.87-.47,1.66-.98,2.36-1.53l2.38,3.01c-.9.89-2.02,1.64-3.37,2.27s-2.98.94-4.9.94c-2.23,0-4.22-.51-5.96-1.53s-3.12-2.52-4.12-4.5c-1-1.98-1.5-4.43-1.5-7.33s.51-5.27,1.54-7.25c1.03-1.98,2.42-3.47,4.17-4.5s3.71-1.53,5.86-1.53Z"/>
        <path class="cls-1" d="M107.12,24.03c0,2.66-.37,4.99-1.12,6.99-.74,2-1.85,3.56-3.33,4.67-1.48,1.11-3.3,1.67-5.48,1.67s-3.99-.54-5.47-1.63c-1.48-1.09-2.6-2.63-3.34-4.62-.75-1.99-1.12-4.34-1.12-7.06s.37-4.99,1.12-6.99c.74-2,1.86-3.56,3.34-4.67,1.48-1.11,3.31-1.67,5.47-1.67s4.01.54,5.48,1.62,2.59,2.62,3.33,4.62c.75,1.99,1.12,4.35,1.12,7.07ZM101.92,24.03c0-3.22-.37-5.62-1.1-7.17-.73-1.56-1.94-2.34-3.63-2.34s-2.9.78-3.63,2.34c-.73,1.56-1.1,3.96-1.1,7.18s.38,5.63,1.13,7.17c.75,1.54,1.95,2.32,3.6,2.32s2.93-.78,3.65-2.34c.72-1.56,1.08-3.95,1.08-7.16Z"/>
        <path class="cls-1" d="M130.65,23.92c0,2.09-.22,3.88-.67,5.37s-1.07,2.72-1.86,3.7c-.79.98-1.7,1.75-2.72,2.3-1.03.55-2.12.94-3.29,1.17-1.16.23-2.34.34-3.54.34h-6.54V11.27h6.09c1.59,0,3.13.17,4.62.51,1.49.34,2.83.96,4.01,1.85,1.19.9,2.13,2.18,2.83,3.83.7,1.66,1.05,3.81,1.05,6.45ZM125.37,23.92c0-1.9-.17-3.43-.53-4.6-.35-1.17-.83-2.06-1.43-2.69-.6-.62-1.29-1.04-2.05-1.26-.76-.22-1.56-.33-2.38-.33h-1.88v18.02h1.9c.86,0,1.68-.14,2.45-.41.77-.27,1.45-.74,2.04-1.41s1.05-1.6,1.38-2.79c.33-1.19.5-2.7.5-4.53Z"/>
        <path class="cls-1" d="M141.26,15v7h9.05v3.67h-9.05v7.42h10.98v3.71h-16.04V11.27h15.91l-.52,3.73h-10.34Z"/>
        <path class="cls-1" d="M159.81,17.96c0-.57.13-1.07.39-1.51.26-.44.62-.8,1.07-1.06.46-.26.96-.4,1.51-.4.86,0,1.58.29,2.15.87s.86,1.28.86,2.1-.29,1.52-.86,2.11c-.57.6-1.29.9-2.15.9s-1.54-.3-2.11-.9c-.57-.6-.86-1.3-.86-2.11ZM159.81,31.27c0-.8.29-1.5.86-2.09.57-.59,1.28-.89,2.11-.89s1.58.3,2.15.89c.57.59.86,1.29.86,2.09s-.29,1.55-.86,2.13c-.57.58-1.29.88-2.15.88s-1.54-.29-2.11-.88c-.57-.58-.86-1.29-.86-2.13Z"/>
        <path class="cls-1" d="M194.47,11.38l-3.88,25.42h-4.21l-2.92-19.18-2.94,19.18h-4.3l-3.58-25.42h3.21l2.71,21.9,3.05-18.94h3.93l2.9,18.94,3.05-21.9h2.97Z"/>
        <path class="cls-1" d="M214.22,11.38v2.57h-5.65v20.29h5.65v2.57h-14.55v-2.57h5.65V13.95h-5.65v-2.57h14.55Z"/>
        <path class="cls-1" d="M232.32,36.81l-8.95-22.36c.01.28.04.75.08,1.41.04.66.09,1.44.15,2.34.06.9.1,1.86.14,2.87s.06,2.01.06,2.99v12.74h-2.97V11.38h4.34l9.1,22.45c-.01-.36-.06-1.01-.13-1.97-.07-.95-.14-2.11-.2-3.46s-.09-2.79-.09-4.3v-12.72h2.97v25.42h-4.49Z"/>
        <path class="cls-1" d="M253.4,14.13v22.67h-3.19V14.13h-7.94v-2.75h19.18l-.33,2.75h-7.72Z"/>
        <path class="cls-1" d="M270.9,14.01v8.57h9.42v2.64h-9.42v9.03h11.56v2.57h-14.77V11.38h14.44l-.37,2.62h-10.86Z"/>
        <path class="cls-1" d="M304.95,18.51c0,1.27-.27,2.38-.82,3.32s-1.29,1.73-2.22,2.34c-.94.62-1.99,1.06-3.16,1.35l7.53,11.28h-3.84l-6.94-10.91h-3.43v10.91h-3.21V11.38h6.54c3.14,0,5.52.6,7.14,1.8,1.62,1.2,2.43,2.98,2.43,5.33ZM301.52,18.51c0-1.64-.47-2.81-1.4-3.52-.93-.71-2.39-1.06-4.36-1.06h-3.69v9.45h3.69c1.82,0,3.24-.37,4.25-1.12,1.01-.74,1.51-2,1.51-3.76Z"/>
      </g>
      <g>
        <circle class="cls-2" cx="23.68" cy="23.68" r="22.68"/>
        <g>
          <polygon class="cls-4" points="28.12 16.05 27.62 21.37 32.57 23.68 27.64 25.95 28.12 31.3 23.67 28.12 19.22 31.3 19.76 26.06 14.77 23.68 19.7 21.41 19.22 16.05 23.67 19.23 28.12 16.05"/>
          <path class="cls-4" d="M25.58,7.16c0-1.05-.85-1.91-1.91-1.91s-1.91.85-1.91,1.91.85,1.91,1.91,1.91,1.91-.85,1.91-1.91"/>
          <path class="cls-4" d="M40.2,14.79c0-1.05-.85-1.91-1.91-1.91s-1.91.85-1.91,1.91.85,1.91,1.91,1.91,1.91-.85,1.91-1.91"/>
          <path class="cls-4" d="M9.13,13.51c-1.05-.04-1.94.78-1.97,1.83-.04,1.05.78,1.94,1.83,1.97,1.05.04,1.94-.78,1.97-1.83.04-1.05-.78-1.94-1.83-1.97"/>
          <path class="cls-4" d="M7.15,32.57c0,1.05.85,1.91,1.91,1.91s1.91-.85,1.91-1.91-.85-1.91-1.91-1.91-1.91.85-1.91,1.91"/>
          <g>
            <g>
              <path class="cls-3" d="M25.58,23.68c0-1.05-.85-1.91-1.91-1.91s-1.91.85-1.91,1.91.85,1.91,1.91,1.91,1.91-.85,1.91-1.91"/>
              <path class="cls-3" d="M23.67,22.41c-.35,0-.64-.28-.64-.64v-12.71c0-.35.28-.64.64-.64s.64.28.64.64v12.71c0,.35-.28.64-.64.64"/>
              <path class="cls-3" d="M23.67,13.52c-.16,0-.32-.06-.45-.19l-2.54-2.53c-.25-.25-.25-.65,0-.9.25-.25.65-.25.9,0l2.09,2.09,2.09-2.09c.25-.25.65-.25.9,0,.25.25.25.65,0,.9l-2.54,2.53c-.12.12-.29.19-.45.19"/>
              <path class="cls-3" d="M23.67,16.69c-.16,0-.32-.06-.45-.19l-3.81-3.8c-.25-.25-.25-.65,0-.9.25-.25.65-.25.9,0l3.36,3.36,3.36-3.36c.25-.25.65-.25.9,0,.25.25.25.65,0,.9l-3.81,3.8c-.12.12-.29.19-.45.19"/>
            </g>
            <g>
              <path class="cls-3" d="M23.67,38.93c-.35,0-.64-.28-.64-.64v-12.71c0-.35.28-.64.64-.64s.64.28.64.64v12.71c0,.35-.28.64-.64.64"/>
              <path class="cls-3" d="M26.21,37.64c-.16,0-.32-.06-.45-.19l-2.09-2.09-2.09,2.09c-.25.25-.65.25-.9,0-.25-.25-.25-.65,0-.9l2.54-2.53c.25-.25.65-.25.9,0l2.54,2.53c.25.25.25.65,0,.9-.12.12-.29.19-.45.19"/>
              <path class="cls-3" d="M27.48,35.74c-.16,0-.32-.06-.45-.19l-3.36-3.36-3.36,3.36c-.25.25-.65.25-.9,0-.25-.25-.25-.65,0-.9l3.81-3.8c.25-.25.65-.25.9,0l3.81,3.8c.25.25.25.65,0,.9-.12.12-.29.19-.45.19"/>
              <path class="cls-3" d="M25.3,23.33c-.22,0-.43-.11-.54-.31-.18-.3-.09-.69.21-.87l11.38-6.88c.3-.18.69-.09.87.21.18.3.09.69-.21.87l-11.38,6.88c-.1.06-.22.09-.33.09"/>
              <path class="cls-3" d="M36.39,19.59c-.05,0-.1,0-.15-.02l-3.48-.86c-.34-.08-.55-.43-.46-.77l.85-3.49c.08-.34.43-.55.77-.47.34.08.55.43.47.77l-.7,2.87,2.87.71c.34.08.55.43.46.77-.07.29-.33.48-.62.48"/>
              <path class="cls-3" d="M35.42,21.66c-.05,0-.1,0-.15-.02l-5.23-1.29c-.34-.08-.55-.43-.46-.77l1.28-5.23c.08-.34.43-.55.77-.47.34.08.55.43.47.77l-1.13,4.61,4.61,1.14c.34.08.55.43.46.77-.07.29-.33.48-.62.48"/>
            </g>
            <g>
              <path class="cls-3" d="M22.01,23.38c-.11,0-.21-.03-.31-.08l-11.31-6.35c-.31-.17-.41-.56-.24-.86.17-.31.56-.42.87-.24l11.31,6.35c.31.17.42.56.24.86-.12.21-.33.32-.55.32"/>
              <path class="cls-3" d="M10.81,20c-.28,0-.53-.18-.61-.46-.1-.34.1-.69.44-.78l2.84-.8-.79-2.85c-.09-.34.1-.69.44-.78.34-.09.69.1.78.44l.96,3.46c.09.34-.1.69-.44.78l-3.45.98c-.06.02-.12.02-.17.02"/>
              <path class="cls-3" d="M11.84,22.04c-.28,0-.53-.18-.61-.46-.09-.34.1-.69.44-.78l4.57-1.29-1.28-4.58c-.09-.34.1-.69.44-.78.34-.09.69.1.78.44l1.45,5.19c.09.34-.1.69-.44.78l-5.18,1.46c-.06.02-.12.02-.17.02"/>
            </g>
            <g>
              <path class="cls-3" d="M10.67,32.19c-.22,0-.43-.11-.54-.31-.18-.3-.09-.69.21-.87l11.38-6.88c.3-.18.69-.09.87.21.18.3.09.69-.21.87l-11.38,6.88c-.1.06-.22.09-.33.09"/>
              <path class="cls-3" d="M13.6,33.39c-.05,0-.1,0-.15-.02-.34-.08-.55-.43-.47-.77l.7-2.87-2.87-.71c-.34-.08-.55-.43-.46-.77.08-.34.43-.55.77-.46l3.48.86c.34.08.55.43.46.77l-.85,3.49c-.07.29-.33.48-.62.48"/>
              <path class="cls-3" d="M15.88,33.5c-.05,0-.1,0-.15-.02-.34-.08-.55-.43-.47-.77l1.13-4.61-4.61-1.14c-.34-.08-.55-.43-.46-.77.08-.34.43-.55.77-.46l5.23,1.29c.34.08.55.43.46.77l-1.28,5.23c-.07.29-.33.48-.62.48"/>
            </g>
            <g>
              <path class="cls-3" d="M36.66,31.61c-.11,0-.21-.03-.31-.08l-11.31-6.35c-.31-.17-.41-.56-.24-.86.17-.31.56-.42.87-.24l11.31,6.35c.31.17.42.56.24.86-.12.21-.33.32-.55.32"/>
              <path class="cls-3" d="M34.06,33.06c-.28,0-.53-.18-.61-.46l-.96-3.46c-.09-.34.1-.69.44-.78l3.45-.98c.33-.1.69.1.78.44.1.34-.1.69-.44.78l-2.84.8.79,2.85c.09.34-.1.69-.44.78-.06.02-.11.02-.17.02"/>
              <path class="cls-3" d="M31.78,33.24c-.28,0-.53-.18-.61-.46l-1.45-5.19c-.09-.34.1-.69.44-.78l5.18-1.46c.34-.09.69.1.78.44.09.34-.1.69-.44.78l-4.57,1.29,1.28,4.58c.09.34-.1.69-.44.78-.06.02-.12.02-.17.02"/>
            </g>
          </g>
          <g>
            <path class="cls-4" d="M38.23,33.85c1.05.04,1.94-.78,1.97-1.83.04-1.05-.78-1.94-1.83-1.97-1.05-.04-1.94.78-1.97,1.83-.04,1.05.78,1.94,1.83,1.97"/>
            <path class="cls-4" d="M25.58,40.2c0-1.05-.85-1.91-1.91-1.91s-1.91.85-1.91,1.91.85,1.91,1.91,1.91,1.91-.85,1.91-1.91"/>
          </g>
        </g>
      </g>
    </g>
  </g>
</svg>