<?xml version="1.0" encoding="UTF-8"?>
<svg id="Layer_2" data-name="Layer 2" xmlns="http://www.w3.org/2000/svg" viewBox="0 0 307.26 55.6">
  <defs>
    <style>
      .cls-1 {
        letter-spacing: .03em;
      }

      .cls-1, .cls-2, .cls-3, .cls-4, .cls-5, .cls-6, .cls-7 {
        font-family: FiraCodeRoman-Regular, 'Fira Code';
        font-variation-settings: 'wght' 400;
      }

      .cls-2 {
        letter-spacing: 0em;
      }

      .cls-8 {
        letter-spacing: .02em;
      }

      .cls-8, .cls-9, .cls-10, .cls-11 {
        font-family: FiraCodeRoman-SemiBold, 'Fira Code';
        font-variation-settings: 'wght' 600;
        font-weight: 600;
      }

      .cls-9 {
        letter-spacing: .04em;
      }

      .cls-3 {
        letter-spacing: 0em;
      }

      .cls-10 {
        letter-spacing: .01em;
      }

      .cls-4 {
        letter-spacing: -.04em;
      }

      .cls-5 {
        letter-spacing: .05em;
      }

      .cls-6 {
        letter-spacing: .03em;
      }

      .cls-12 {
        fill: #f6f7f9;
        stroke: #0f4c7a;
        stroke-miterlimit: 10;
        stroke-width: 2px;
      }

      .cls-13 {
        fill: #bfd8f1;
      }

      .cls-7 {
        letter-spacing: 0em;
      }

      .cls-11 {
        letter-spacing: -.08em;
      }

      .cls-14 {
        fill: #8fa4b7;
      }

      .cls-15 {
        fill: #0f1b2a;
        font-size: 36px;
      }
    </style>
  </defs>
  <g id="Layer_1-2" data-name="Layer 1">
    <g>
      <text class="cls-15" transform="translate(63.36 36.81)"><tspan class="cls-8" x="0" y="0">C</tspan><tspan class="cls-9" x="22.75" y="0">O</tspan><tspan class="cls-10" x="46.35" y="0">D</tspan><tspan class="cls-11" x="68.98" y="0">E</tspan><tspan class="cls-4" x="88.38" y="0">:</tspan><tspan class="cls-6" x="109.13" y="0">W</tspan><tspan class="cls-3" x="132.51" y="0">I</tspan><tspan class="cls-1" x="154.37" y="0">N</tspan><tspan class="cls-7" x="177.43" y="0">T</tspan><tspan class="cls-2" x="199.69" y="0">E</tspan><tspan class="cls-5" x="221.74" y="0">R</tspan></text>
      <g>
        <circle class="cls-12" cx="23.68" cy="23.68" r="22.68"/>
        <g>
          <polygon class="cls-14" points="28.12 16.05 27.62 21.37 32.57 23.68 27.64 25.95 28.12 31.3 23.67 28.12 19.22 31.3 19.76 26.06 14.77 23.68 19.7 21.41 19.22 16.05 23.67 19.23 28.12 16.05"/>
          <path class="cls-14" d="M25.58,7.16c0-1.05-.85-1.91-1.91-1.91s-1.91.85-1.91,1.91.85,1.91,1.91,1.91,1.91-.85,1.91-1.91"/>
          <path class="cls-14" d="M40.2,14.79c0-1.05-.85-1.91-1.91-1.91s-1.91.85-1.91,1.91.85,1.91,1.91,1.91,1.91-.85,1.91-1.91"/>
          <path class="cls-14" d="M9.13,13.51c-1.05-.04-1.94.78-1.97,1.83-.04,1.05.78,1.94,1.83,1.97,1.05.04,1.94-.78,1.97-1.83.04-1.05-.78-1.94-1.83-1.97"/>
          <path class="cls-14" d="M7.15,32.57c0,1.05.85,1.91,1.91,1.91s1.91-.85,1.91-1.91-.85-1.91-1.91-1.91-1.91.85-1.91,1.91"/>
          <g>
            <g>
              <path class="cls-13" d="M25.58,23.68c0-1.05-.85-1.91-1.91-1.91s-1.91.85-1.91,1.91.85,1.91,1.91,1.91,1.91-.85,1.91-1.91"/>
              <path class="cls-13" d="M23.67,22.41c-.35,0-.64-.28-.64-.64v-12.71c0-.35.28-.64.64-.64s.64.28.64.64v12.71c0,.35-.28.64-.64.64"/>
              <path class="cls-13" d="M23.67,13.52c-.16,0-.32-.06-.45-.19l-2.54-2.53c-.25-.25-.25-.65,0-.9.25-.25.65-.25.9,0l2.09,2.09,2.09-2.09c.25-.25.65-.25.9,0,.25.25.25.65,0,.9l-2.54,2.53c-.12.12-.29.19-.45.19"/>
              <path class="cls-13" d="M23.67,16.69c-.16,0-.32-.06-.45-.19l-3.81-3.8c-.25-.25-.25-.65,0-.9.25-.25.65-.25.9,0l3.36,3.36,3.36-3.36c.25-.25.65-.25.9,0,.25.25.25.65,0,.9l-3.81,3.8c-.12.12-.29.19-.45.19"/>
            </g>
            <g>
              <path class="cls-13" d="M23.67,38.93c-.35,0-.64-.28-.64-.64v-12.71c0-.35.28-.64.64-.64s.64.28.64.64v12.71c0,.35-.28.64-.64.64"/>
              <path class="cls-13" d="M26.21,37.64c-.16,0-.32-.06-.45-.19l-2.09-2.09-2.09,2.09c-.25.25-.65.25-.9,0-.25-.25-.25-.65,0-.9l2.54-2.53c.25-.25.65-.25.9,0l2.54,2.53c.25.25.25.65,0,.9-.12.12-.29.19-.45.19"/>
              <path class="cls-13" d="M27.48,35.74c-.16,0-.32-.06-.45-.19l-3.36-3.36-3.36,3.36c-.25.25-.65.25-.9,0-.25-.25-.25-.65,0-.9l3.81-3.8c.25-.25.65-.25.9,0l3.81,3.8c.25.25.25.65,0,.9-.12.12-.29.19-.45.19"/>
              <path class="cls-13" d="M25.3,23.33c-.22,0-.43-.11-.54-.31-.18-.3-.09-.69.21-.87l11.38-6.88c.3-.18.69-.09.87.21.18.3.09.69-.21.87l-11.38,6.88c-.1.06-.22.09-.33.09"/>
              <path class="cls-13" d="M36.39,19.59c-.05,0-.1,0-.15-.02l-3.48-.86c-.34-.08-.55-.43-.46-.77l.85-3.49c.08-.34.43-.55.77-.47.34.08.55.43.47.77l-.7,2.87,2.87.71c.34.08.55.43.46.77-.07.29-.33.48-.62.48"/>
              <path class="cls-13" d="M35.42,21.66c-.05,0-.1,0-.15-.02l-5.23-1.29c-.34-.08-.55-.43-.46-.77l1.28-5.23c.08-.34.43-.55.77-.47.34.08.55.43.47.77l-1.13,4.61,4.61,1.14c.34.08.55.43.46.77-.07.29-.33.48-.62.48"/>
            </g>
            <g>
              <path class="cls-13" d="M22.01,23.38c-.11,0-.21-.03-.31-.08l-11.31-6.35c-.31-.17-.41-.56-.24-.86.17-.31.56-.42.87-.24l11.31,6.35c.31.17.42.56.24.86-.12.21-.33.32-.55.32"/>
              <path class="cls-13" d="M10.81,20c-.28,0-.53-.18-.61-.46-.1-.34.1-.69.44-.78l2.84-.8-.79-2.85c-.09-.34.1-.69.44-.78.34-.09.69.1.78.44l.96,3.46c.09.34-.1.69-.44.78l-3.45.98c-.06.02-.12.02-.17.02"/>
              <path class="cls-13" d="M11.84,22.04c-.28,0-.53-.18-.61-.46-.09-.34.1-.69.44-.78l4.57-1.29-1.28-4.58c-.09-.34.1-.69.44-.78.34-.09.69.1.78.44l1.45,5.19c.09.34-.1.69-.44.78l-5.18,1.46c-.06.02-.12.02-.17.02"/>
            </g>
            <g>
              <path class="cls-13" d="M10.67,32.19c-.22,0-.43-.11-.54-.31-.18-.3-.09-.69.21-.87l11.38-6.88c.3-.18.69-.09.87.21.18.3.09.69-.21.87l-11.38,6.88c-.1.06-.22.09-.33.09"/>
              <path class="cls-13" d="M13.6,33.39c-.05,0-.1,0-.15-.02-.34-.08-.55-.43-.47-.77l.7-2.87-2.87-.71c-.34-.08-.55-.43-.46-.77.08-.34.43-.55.77-.46l3.48.86c.34.08.55.43.46.77l-.85,3.49c-.07.29-.33.48-.62.48"/>
              <path class="cls-13" d="M15.88,33.5c-.05,0-.1,0-.15-.02-.34-.08-.55-.43-.47-.77l1.13-4.61-4.61-1.14c-.34-.08-.55-.43-.46-.77.08-.34.43-.55.77-.46l5.23,1.29c.34.08.55.43.46.77l-1.28,5.23c-.07.29-.33.48-.62.48"/>
            </g>
            <g>
              <path class="cls-13" d="M36.66,31.61c-.11,0-.21-.03-.31-.08l-11.31-6.35c-.31-.17-.41-.56-.24-.86.17-.31.56-.42.87-.24l11.31,6.35c.31.17.42.56.24.86-.12.21-.33.32-.55.32"/>
              <path class="cls-13" d="M34.06,33.06c-.28,0-.53-.18-.61-.46l-.96-3.46c-.09-.34.1-.69.44-.78l3.45-.98c.33-.1.69.1.78.44.1.34-.1.69-.44.78l-2.84.8.79,2.85c.09.34-.1.69-.44.78-.06.02-.11.02-.17.02"/>
              <path class="cls-13" d="M31.78,33.24c-.28,0-.53-.18-.61-.46l-1.45-5.19c-.09-.34.1-.69.44-.78l5.18-1.46c.34-.09.69.1.78.44.09.34-.1.69-.44.78l-4.57,1.29,1.28,4.58c.09.34-.1.69-.44.78-.06.02-.12.02-.17.02"/>
            </g>
          </g>
          <g>
            <path class="cls-14" d="M38.23,33.85c1.05.04,1.94-.78,1.97-1.83.04-1.05-.78-1.94-1.83-1.97-1.05-.04-1.94.78-1.97,1.83-.04,1.05.78,1.94,1.83,1.97"/>
            <path class="cls-14" d="M25.58,40.2c0-1.05-.85-1.91-1.91-1.91s-1.91.85-1.91,1.91.85,1.91,1.91,1.91,1.91-.85,1.91-1.91"/>
          </g>
        </g>
      </g>
    </g>
  </g>
</svg>