<?xml version="1.0" encoding="UTF-8"?>
<svg id="Layer_2" data-name="Layer 2" xmlns="http://www.w3.org/2000/svg" viewBox="0 0 305.38 55.6">
  <defs>
    <style>
      .cls-1 {
        fill: #0f1b2a;
      }

      .cls-2 {
        fill: #ffcf56;
      }

      .cls-3 {
        fill: #e95e9d;
      }

      .cls-4 {
        fill: #c1b2d7;
      }

      .cls-5 {
        fill: #f6f7f9;
        stroke: #e95e9d;
        stroke-miterlimit: 10;
        stroke-width: 2px;
      }
    </style>
  </defs>
  <g id="Layer_1-2" data-name="Layer 1">
    <g>
      <g>
        <path class="cls-1" d="M74.94,10.72c1.77,0,3.27.23,4.5.69,1.23.46,2.37,1.12,3.42,1.98l-2.57,3.05c-.73-.62-1.52-1.08-2.39-1.4s-1.79-.48-2.78-.48c-1.18,0-2.27.31-3.26.94-.99.63-1.78,1.63-2.38,3.02-.6,1.38-.9,3.21-.9,5.47s.29,4.03.86,5.41c.57,1.38,1.35,2.38,2.34,3.02.99.63,2.11.95,3.37.95,1.33,0,2.43-.23,3.3-.7.87-.47,1.66-.98,2.36-1.53l2.38,3.01c-.9.89-2.02,1.64-3.37,2.27s-2.98.94-4.9.94c-2.23,0-4.22-.51-5.96-1.53s-3.12-2.52-4.12-4.5c-1-1.98-1.5-4.42-1.5-7.33s.51-5.27,1.54-7.25c1.03-1.97,2.42-3.47,4.17-4.5s3.71-1.53,5.86-1.53Z"/>
        <path class="cls-1" d="M105.48,24.03c0,2.66-.37,4.99-1.12,6.99-.74,2-1.85,3.56-3.33,4.67-1.48,1.11-3.3,1.67-5.48,1.67s-3.99-.54-5.47-1.63c-1.48-1.09-2.6-2.63-3.34-4.62-.75-1.99-1.12-4.34-1.12-7.06s.37-4.99,1.12-6.99c.74-2,1.86-3.56,3.34-4.67,1.48-1.11,3.31-1.67,5.47-1.67s4.01.54,5.48,1.62,2.59,2.62,3.33,4.62c.75,1.99,1.12,4.35,1.12,7.07ZM100.27,24.03c0-3.22-.37-5.62-1.1-7.17-.73-1.56-1.94-2.34-3.63-2.34s-2.9.78-3.63,2.34c-.73,1.56-1.1,3.96-1.1,7.18s.38,5.63,1.13,7.17c.75,1.54,1.95,2.32,3.6,2.32s2.93-.78,3.65-2.34c.72-1.56,1.08-3.95,1.08-7.16Z"/>
        <path class="cls-1" d="M129.01,23.92c0,2.09-.22,3.88-.67,5.37s-1.07,2.72-1.86,3.7c-.79.98-1.7,1.75-2.72,2.3-1.03.55-2.12.94-3.29,1.17-1.16.23-2.34.34-3.54.34h-6.54V11.27h6.09c1.59,0,3.13.17,4.62.51,1.49.34,2.83.96,4.01,1.86,1.19.9,2.13,2.18,2.83,3.83.7,1.66,1.05,3.81,1.05,6.45ZM123.73,23.92c0-1.9-.17-3.43-.53-4.6-.35-1.17-.83-2.06-1.43-2.69-.6-.62-1.29-1.04-2.05-1.26-.76-.22-1.56-.33-2.38-.33h-1.88v18.02h1.9c.86,0,1.68-.14,2.45-.41.77-.27,1.45-.74,2.04-1.41s1.05-1.6,1.38-2.79c.33-1.19.5-2.7.5-4.53Z"/>
        <path class="cls-1" d="M139.62,15v7h9.05v3.67h-9.05v7.42h10.98v3.71h-16.04V11.27h15.91l-.52,3.73h-10.34Z"/>
        <path class="cls-1" d="M158.17,17.96c0-.57.13-1.07.39-1.51.26-.44.62-.8,1.07-1.06.46-.26.96-.4,1.51-.4.86,0,1.58.29,2.15.87.57.58.86,1.28.86,2.1s-.29,1.52-.86,2.11c-.57.6-1.29.9-2.15.9s-1.54-.3-2.11-.9c-.57-.6-.86-1.3-.86-2.11ZM158.17,31.27c0-.8.29-1.5.86-2.09s1.28-.89,2.11-.89,1.58.3,2.15.89.86,1.29.86,2.09-.29,1.55-.86,2.13c-.57.58-1.29.88-2.15.88s-1.54-.29-2.11-.88c-.57-.58-.86-1.29-.86-2.13Z"/>
        <path class="cls-1" d="M189.94,29.77c0,1.45-.36,2.74-1.09,3.87-.73,1.13-1.78,2.01-3.16,2.64-1.38.63-3.06.95-5.04.95-1.86,0-3.54-.28-5.05-.85-1.51-.57-2.8-1.37-3.87-2.4l1.9-2.14c.89.82,1.9,1.48,3.05,1.97,1.14.49,2.49.73,4.02.73,1.03,0,2-.17,2.9-.51.9-.34,1.62-.86,2.18-1.55s.83-1.58.83-2.65c0-.82-.16-1.53-.48-2.1-.32-.58-.89-1.09-1.7-1.54s-1.94-.89-3.4-1.32c-1.67-.49-3.12-1.05-4.35-1.67-1.23-.62-2.17-1.39-2.84-2.3-.67-.91-1.01-2.04-1.01-3.38,0-1.27.35-2.39,1.05-3.38.7-.98,1.67-1.76,2.91-2.32s2.66-.84,4.27-.84c1.76,0,3.29.25,4.59.75,1.3.5,2.48,1.22,3.54,2.15l-1.88,2.09c-.91-.81-1.89-1.4-2.94-1.76-1.05-.36-2.11-.54-3.19-.54-.92,0-1.77.14-2.54.42-.77.28-1.38.69-1.85,1.24s-.69,1.25-.69,2.09c0,.73.2,1.35.59,1.88s1.06,1.01,1.99,1.45c.93.44,2.21.9,3.82,1.38,1.32.38,2.54.86,3.67,1.43,1.13.57,2.03,1.35,2.72,2.33s1.03,2.28,1.03,3.91Z"/>
        <path class="cls-1" d="M212.88,19.19c0,1.98-.42,3.57-1.26,4.76-.84,1.19-2,2.06-3.48,2.6-1.48.54-3.17.81-5.09.81h-3.25v9.43h-3.21V11.38h6.5c3.03,0,5.42.64,7.17,1.91,1.75,1.27,2.63,3.24,2.63,5.9ZM209.44,19.23c0-1.32-.26-2.36-.78-3.13-.52-.77-1.22-1.32-2.12-1.66-.9-.34-1.93-.51-3.08-.51h-3.67v10.86h3.54c1.19,0,2.25-.16,3.16-.49.91-.33,1.63-.89,2.16-1.7.53-.81.79-1.93.79-3.37Z"/>
        <path class="cls-1" d="M234.82,18.51c0,1.27-.27,2.38-.82,3.32-.55.95-1.29,1.73-2.22,2.34-.94.62-1.99,1.07-3.16,1.35l7.53,11.28h-3.84l-6.94-10.91h-3.43v10.91h-3.21V11.38h6.54c3.14,0,5.52.6,7.14,1.8,1.62,1.2,2.43,2.98,2.43,5.33ZM231.39,18.51c0-1.64-.47-2.81-1.4-3.52-.93-.71-2.39-1.06-4.36-1.06h-3.69v9.45h3.69c1.82,0,3.24-.37,4.25-1.12,1.01-.75,1.51-2,1.51-3.76Z"/>
        <path class="cls-1" d="M256.3,11.38v2.57h-5.65v20.29h5.65v2.57h-14.55v-2.57h5.65V13.95h-5.65v-2.57h14.55Z"/>
        <path class="cls-1" d="M274.4,36.81l-8.95-22.36c.01.28.04.75.08,1.41s.09,1.44.15,2.34c.06.9.1,1.86.14,2.87.04,1.01.06,2.01.06,2.99v12.74h-2.97V11.38h4.34l9.1,22.45c-.01-.36-.06-1.01-.13-1.97-.07-.95-.14-2.11-.2-3.46-.06-1.35-.09-2.79-.09-4.3v-12.72h2.97v25.42h-4.49Z"/>
        <path class="cls-1" d="M294.8,37.23c-2.01,0-3.75-.49-5.23-1.46-1.48-.97-2.63-2.43-3.44-4.38-.81-1.94-1.22-4.38-1.22-7.31,0-2.19.29-4.1.88-5.74.58-1.64,1.38-3,2.38-4.1s2.14-1.91,3.42-2.46c1.27-.54,2.59-.81,3.96-.81,1.66,0,3.04.24,4.14.71,1.1.47,2.14,1.17,3.14,2.08l-1.94,2.01c-.78-.73-1.59-1.26-2.45-1.61-.86-.34-1.81-.52-2.87-.52-.92,0-1.82.18-2.68.54-.86.36-1.63.94-2.32,1.75-.68.81-1.23,1.87-1.62,3.2-.4,1.33-.6,2.98-.6,4.95,0,2.45.25,4.44.77,5.98.51,1.54,1.27,2.67,2.27,3.39s2.24,1.08,3.72,1.08c.89,0,1.73-.1,2.52-.31.79-.21,1.57-.51,2.32-.91v-7.75h-5l-.39-2.66h8.57v12.11c-1.14.62-2.36,1.14-3.66,1.57s-2.84.65-4.65.65Z"/>
      </g>
      <g>
        <circle class="cls-5" cx="23.68" cy="23.68" r="22.68"/>
        <g>
          <g>
            <path class="cls-4" d="M7.18,33.83c1.54,2.67,23.07,5.91,16.5-9.53-10.09-13.41-18.04,6.86-16.5,9.53Z"/>
            <path class="cls-4" d="M23.68,5.25c-3.08,0-16.66,17.02,0,19.05,16.66-2.03,3.08-19.05,0-19.05Z"/>
            <path class="cls-4" d="M40.17,33.83c1.54-2.67-6.41-22.94-16.5-9.53-6.57,15.44,14.96,12.2,16.5,9.53Z"/>
          </g>
          <g>
            <path class="cls-3" d="M8.46,15.27c-1.44,2.5,6.02,21.53,15.49,8.94,6.17-14.5-14.04-11.45-15.49-8.94Z"/>
            <path class="cls-3" d="M39.44,15.27c-1.45-2.51-21.66-5.55-15.49,8.94,9.47,12.59,16.94-6.44,15.49-8.94Z"/>
            <path class="cls-3" d="M23.95,42.1c2.89,0,15.64-15.98,0-17.89-15.64,1.91-2.89,17.89,0,17.89Z"/>
          </g>
          <path class="cls-2" d="M27.57,23.92c0,2.18-1.77,3.95-3.94,3.95s-3.94-1.77-3.94-3.95,1.76-3.94,3.94-3.94c2.18,0,3.94,1.77,3.94,3.94Z"/>
        </g>
      </g>
    </g>
  </g>
</svg>